<?xml version="1.0" encoding="UTF-8" standalone="no"?>
<!-- Created with Inkscape (http://www.inkscape.org/) -->

<svg
   width="107.6046mm"
   height="149.34273mm"
   viewBox="0 0 107.6046 149.34273"
   version="1.1"
   id="svg5"
   inkscape:version="1.2.2 (1:1.2.2+202305151915+b0a8486541)"
   xml:space="preserve"
   sodipodi:docname="msh_porg_room.svg"
   xmlns:inkscape="http://www.inkscape.org/namespaces/inkscape"
   xmlns:sodipodi="http://sodipodi.sourceforge.net/DTD/sodipodi-0.dtd"
   xmlns="http://www.w3.org/2000/svg"
   xmlns:svg="http://www.w3.org/2000/svg"><sodipodi:namedview
     id="namedview7"
     pagecolor="#292929"
     bordercolor="#666666"
     borderopacity="1.0"
     inkscape:pageshadow="2"
     inkscape:pageopacity="0"
     inkscape:pagecheckerboard="0"
     inkscape:document-units="mm"
     showgrid="false"
     inkscape:showpageshadow="2"
     inkscape:deskcolor="#292929"
     inkscape:zoom="3.3638608"
     inkscape:cx="214.33705"
     inkscape:cy="119.95146"
     inkscape:window-width="2560"
     inkscape:window-height="1376"
     inkscape:window-x="0"
     inkscape:window-y="0"
     inkscape:window-maximized="1"
     inkscape:current-layer="g3120" /><defs
     id="defs2"><clipPath
       clipPathUnits="userSpaceOnUse"
       id="clipPath3181"><rect
         style="opacity:1;fill:#ffffff;fill-opacity:1;stroke:none;stroke-width:5.00002;stroke-linecap:round;stroke-linejoin:bevel;stroke-dasharray:none;stroke-opacity:1;paint-order:normal;stop-color:#000000"
         id="rect3183"
         width="107.6046"
         height="149.34273"
         x="56.571903"
         y="59.111572" /></clipPath></defs><g
     inkscape:label="Layer 1"
     inkscape:groupmode="layer"
     id="layer1"
     transform="translate(-56.571903,-59.111572)"><g
       inkscape:groupmode="maskhelper"
       id="g3162"
       clip-path="url(#clipPath3181)"><rect
         style="opacity:1;fill:#ffffff;fill-opacity:1;stroke:none;stroke-width:5;stroke-linecap:round;stroke-linejoin:bevel;stroke-dasharray:none;stroke-opacity:1;paint-order:normal;stop-color:#000000"
         id="rect2060"
         width="107.6046"
         height="149.34273"
         x="56.571903"
         y="59.111572" /><g
         id="g3120"><path
           id="path970"
           style="fill:#b3b3b3;stroke:#000000;stroke-width:0.6;stroke-linecap:butt;stroke-linejoin:miter;stroke-dasharray:none;stroke-opacity:1"
           d="M 105.60234,63.231283 65.644055,168.51219 117.25589,187.79836 156.76666,82.560852 Z m 8.41964,21.87205 22.00434,8.172627 -9.32604,24.51117 -21.70049,-8.19744 z m -15.125691,41.443977 21.208521,7.91477 -8.45788,22.67613 -21.74079,-7.9654 z" /><rect
           style="opacity:1;fill:#bcd35f;fill-opacity:1;stroke:#000000;stroke-width:0.5;stroke-linecap:round;stroke-dasharray:none;stroke-opacity:1;paint-order:normal;stop-color:#000000"
           id="rect1036"
           width="18.271442"
           height="21.061745"
           x="99.738983"
           y="56.708366"
           transform="rotate(20.761107)" /><rect
           style="opacity:1;fill:#bcd35f;fill-opacity:1;stroke:#000000;stroke-width:0.5;stroke-linecap:round;stroke-dasharray:none;stroke-opacity:1;paint-order:normal;stop-color:#000000"
           id="rect1090"
           width="18.271442"
           height="21.061745"
           x="100.32084"
           y="103.5734"
           transform="rotate(20.761107)" /><rect
           style="opacity:1;fill:#bcd35f;fill-opacity:1;stroke:#000000;stroke-width:0.5;stroke-linecap:round;stroke-dasharray:none;stroke-opacity:1;paint-order:normal;stop-color:#000000"
           id="rect1092"
           width="18.271442"
           height="21.061745"
           x="100.40563"
           y="15.314067"
           transform="rotate(20.761107)" /><g
           id="g1845"
           transform="translate(0.21437184,0.09460329)"><g
             id="g1833"><rect
               style="opacity:1;fill:#ffaaaa;fill-opacity:1;stroke:#000000;stroke-width:0.3;stroke-linecap:round;stroke-dasharray:none;stroke-opacity:1;paint-order:normal;stop-color:#000000"
               id="rect1820"
               width="2.4129474"
               height="3.351788"
               x="133.44087"
               y="63.349239"
               transform="rotate(20.21254)" /><rect
               style="opacity:1;fill:#ffaaaa;fill-opacity:1;stroke:#000000;stroke-width:0.3;stroke-linecap:round;stroke-dasharray:none;stroke-opacity:1;paint-order:normal;stop-color:#000000"
               id="rect1826"
               width="2.4129474"
               height="3.351788"
               x="131.02792"
               y="63.349239"
               transform="rotate(20.21254)" /><rect
               style="opacity:1;fill:#ffaaaa;fill-opacity:1;stroke:#000000;stroke-width:0.3;stroke-linecap:round;stroke-dasharray:none;stroke-opacity:1;paint-order:normal;stop-color:#000000"
               id="rect1828"
               width="2.4129474"
               height="3.351788"
               x="128.61497"
               y="63.349239"
               transform="rotate(20.21254)" /></g><path
             style="fill:none;stroke:#000000;stroke-width:0.264583px;stroke-linecap:butt;stroke-linejoin:bevel;stroke-opacity:1"
             d="m 97.649087,107.03034 3.422413,-2.31169 1.10629,3.97906 3.42241,-2.3117"
             id="path1835" /><path
             style="fill:none;stroke:#000000;stroke-width:0.264583px;stroke-linecap:butt;stroke-linejoin:bevel;stroke-opacity:1"
             d="m 104.44215,109.53139 -1.1063,-3.97906 -3.422409,2.31169 -1.106299,-3.97906"
             id="path1837" /></g><path
           style="fill:none;stroke:#666666;stroke-width:5;stroke-linecap:butt;stroke-linejoin:miter;stroke-dasharray:none;stroke-opacity:1"
           d="m 36.238111,172.28658 69.554679,29.4024 c 13.75119,5.10104 21.11311,-8.74702 27.27929,-19.86231 6.04763,-10.90159 56.14126,-138.142801 56.14126,-138.142801 l 11.81606,5.904434 -50.96365,138.595927 c -3.32686,6.95062 -14.87843,35.9032 -52.490712,19.59017 C 59.948803,191.45532 33.479843,180.71954 33.479843,180.71954"
           id="path1910"
           sodipodi:nodetypes="ccscccsc" /><g
           id="g318"
           transform="matrix(1.7949358,0,0,1.8044502,-83.94236,-51.091583)"
           style="stroke-width:0.555652"><path
             style="fill:#44aa00;stroke:#000000;stroke-width:0.147016px;stroke-linecap:butt;stroke-linejoin:miter;stroke-opacity:1"
             d="m 104.38825,66.661053 5.58264,2.167305 1.33836,-3.36433 -5.73595,-2.1501 z"
             id="path2166" /><text
             xml:space="preserve"
             style="font-style:normal;font-variant:normal;font-weight:normal;font-stretch:normal;font-size:2.95384px;line-height:1.25;font-family:'Helvetica Compressed';-inkscape-font-specification:'Helvetica Compressed';stroke-width:0.147016"
             x="120.98069"
             y="26.765757"
             id="text2222"
             transform="rotate(19.731105)"><tspan
               sodipodi:role="line"
               id="tspan2220"
               style="font-style:normal;font-variant:normal;font-weight:normal;font-stretch:normal;font-family:'Helvetica Compressed';-inkscape-font-specification:'Helvetica Compressed';stroke-width:0.147016"
               x="120.98069"
               y="26.765757">PORG</tspan></text></g><path
           id="path2950"
           style="fill:#e6e6e6;stroke:#000000;stroke-width:0.264583px;stroke-linecap:butt;stroke-linejoin:miter;stroke-opacity:1"
           d="m 103.40277,69.214009 -0.95605,2.568326 5.72222,2.40651 -33.628929,89.151055 -5.910753,-2.27066 -1.027328,2.70629 50.983,20.01905 1.13726,-2.9172 -5.73549,-2.2395 37.76355,-97.809677 -3.05345,-1.171814 -2.49903,6.524761 z m 7.01768,5.893929 34.56885,13.517819 -14.60741,38.019553 -27.72285,-10.24596 2.31413,-6.64319 -7.114816,-2.56976 z m -15.929913,42.215682 34.509773,12.75303 -13.39178,36.83786 -34.469069,-12.84899 z m -14.503491,39.30173 34.452564,13.19648 -2.90399,7.9136 -34.4907,-13.54135 z"
           sodipodi:nodetypes="cccccccccccccccccccccccccccccc" /><g
           id="g323"
           style="display:none"
           inkscape:label="text"><text
             xml:space="preserve"
             style="font-style:normal;font-variant:normal;font-weight:normal;font-stretch:normal;font-size:7.05556px;line-height:1.25;font-family:'Helvetica Compressed';-inkscape-font-specification:'Helvetica Compressed';text-align:center;text-anchor:middle;stroke-width:0.264583"
             x="68.216888"
             y="69.103958"
             id="text3242"><tspan
               sodipodi:role="line"
               id="tspan3240"
               style="font-style:normal;font-variant:normal;font-weight:normal;font-stretch:normal;font-family:'Helvetica Compressed';-inkscape-font-specification:'Helvetica Compressed';text-align:center;text-anchor:middle;stroke-width:0.264583"
               x="68.216888"
               y="69.103958">North</tspan><tspan
               sodipodi:role="line"
               style="font-style:normal;font-variant:normal;font-weight:normal;font-stretch:normal;font-family:'Helvetica Compressed';-inkscape-font-specification:'Helvetica Compressed';text-align:center;text-anchor:middle;stroke-width:0.264583"
               x="68.216888"
               y="77.923409"
               id="tspan3244">is up</tspan></text><text
             xml:space="preserve"
             style="font-style:normal;font-variant:normal;font-weight:normal;font-stretch:normal;font-size:7.05556px;line-height:1.25;font-family:'Helvetica Compressed';-inkscape-font-specification:'Helvetica Compressed';text-align:center;text-anchor:middle;stroke-width:0.264583"
             x="-96.828705"
             y="202.11885"
             id="text3250"
             transform="rotate(-68.281632)"><tspan
               sodipodi:role="line"
               style="font-style:normal;font-variant:normal;font-weight:normal;font-stretch:normal;font-family:'Helvetica Compressed';-inkscape-font-specification:'Helvetica Compressed';text-align:center;text-anchor:middle;stroke-width:0.264583"
               x="-96.828705"
               y="202.11885"
               id="tspan3248">Nothing is to scale</tspan></text><text
             xml:space="preserve"
             style="font-style:normal;font-variant:normal;font-weight:normal;font-stretch:normal;font-size:7.05556px;line-height:1.25;font-family:'Helvetica Compressed';-inkscape-font-specification:'Helvetica Compressed';text-align:center;text-anchor:middle;stroke-width:0.264583"
             x="153.09357"
             y="140.73882"
             id="text3256"
             transform="rotate(22.942717)"><tspan
               sodipodi:role="line"
               style="font-style:normal;font-variant:normal;font-weight:normal;font-stretch:normal;font-family:'Helvetica Compressed';-inkscape-font-specification:'Helvetica Compressed';text-align:center;text-anchor:middle;stroke-width:0.264583"
               x="153.09357"
               y="140.73882"
               id="tspan3254">This map is a lie</tspan></text></g><g
           id="g339"
           inkscape:label="shape_text"><path
             id="path341"
             style="font-size:7.05556px;line-height:1.25;font-family:'Helvetica Compressed';-inkscape-font-specification:'Helvetica Compressed';text-align:center;text-anchor:middle;stroke-width:0.264583"
             d="M 61.012976 64.080261 L 61.012976 69.103727 L 61.930232 69.103727 L 61.930232 64.90605 L 61.944702 64.90605 L 62.812349 69.103727 L 64.3151 69.103727 L 64.3151 64.080261 L 63.397843 64.080261 L 63.397843 67.735335 L 63.38389 67.735335 L 62.636132 64.080261 L 61.012976 64.080261 z M 72.683064 64.080261 L 72.683064 69.103727 L 73.797725 69.103727 L 73.797725 66.373661 C 73.797725 66.154939 73.805052 65.935962 74.030786 65.935962 C 74.256562 65.935962 74.26333 66.154939 74.26333 66.373661 L 74.26333 69.103727 L 75.378507 69.103727 L 75.378507 65.978336 C 75.378507 65.392726 75.166771 65.018705 74.602327 65.018705 C 74.193104 65.018705 73.925083 65.216281 73.812194 65.569059 L 73.797725 65.569059 L 73.797725 64.080261 L 72.683064 64.080261 z M 70.869738 64.341227 L 70.869738 65.068314 L 70.495601 65.068314 L 70.495601 65.80212 L 70.869738 65.80212 L 70.869738 68.264502 C 70.869738 68.793668 71.003781 69.103727 71.561169 69.103727 L 72.471191 69.103727 L 72.471191 68.370438 L 72.2526 68.370438 C 71.991545 68.370438 71.984399 68.243424 71.984399 68.003536 L 71.984399 65.80212 L 72.471191 65.80212 L 72.471191 65.068314 L 71.984399 65.068314 L 71.984399 64.341227 L 70.869738 64.341227 z M 65.931022 65.018705 C 65.063189 65.018705 64.5833 65.427831 64.5833 66.154553 L 64.5833 68.08105 C 64.5833 68.828939 65.218411 69.153336 65.931022 69.153336 C 66.643633 69.153336 67.278743 68.828939 67.278743 68.08105 L 67.278743 66.154553 C 67.278743 65.427831 66.798855 65.018705 65.931022 65.018705 z M 69.529252 65.018705 C 69.12003 65.018705 68.872816 65.244703 68.72465 65.597481 L 68.703462 65.597481 L 68.703979 65.068314 L 67.588802 65.068314 L 67.588802 69.103727 L 68.703979 69.103727 L 68.703979 66.267724 C 68.703979 66.105447 68.75308 65.935962 68.936523 65.935962 C 69.119968 65.935962 69.169584 66.105447 69.169584 66.267724 L 69.169584 67.248543 L 70.284244 67.248543 L 70.284244 65.808838 C 70.284244 65.39256 70.093696 65.018705 69.529252 65.018705 z M 65.931022 65.75251 C 66.10741 65.75251 66.163566 65.886498 66.163566 66.034664 L 66.163566 68.137378 C 66.163566 68.285545 66.107415 68.419531 65.931022 68.419531 C 65.754633 68.419531 65.697961 68.285545 65.697961 68.137378 L 65.697961 66.034664 C 65.697961 65.886498 65.754629 65.75251 65.931022 65.75251 z M 62.332792 72.899878 L 62.332792 73.612496 L 63.447452 73.612496 L 63.447452 72.899878 L 62.332792 72.899878 z M 65.070092 73.838322 C 64.336315 73.838322 63.764746 74.155884 63.764746 74.960217 C 63.764746 76.27255 65.345528 75.976252 65.345528 76.935807 C 65.345528 77.10514 65.288861 77.239148 65.112467 77.239148 C 64.936078 77.239148 64.879406 77.10514 64.879406 76.935807 L 64.879406 76.328609 L 63.764746 76.328609 L 63.764746 76.970947 C 63.764746 77.697668 64.315107 77.972953 65.027718 77.972953 C 65.959051 77.972953 66.439001 77.549634 66.439001 76.752356 C 66.439001 75.440023 64.879406 75.566912 64.879406 74.875468 C 64.879406 74.706135 64.936074 74.572127 65.112467 74.572127 C 65.288856 74.572127 65.345528 74.706135 65.345528 74.875468 L 65.345528 75.31265 L 66.460188 75.31265 L 66.460188 74.847046 C 66.460188 74.169712 65.916758 73.838322 65.070092 73.838322 z M 73.310933 73.838322 C 72.901711 73.838322 72.598433 73.993247 72.541988 74.416581 L 72.528035 74.416581 L 72.528035 73.887414 L 71.412858 73.887414 L 71.412858 78.826648 L 72.528035 78.826648 L 72.528035 77.394177 L 72.541988 77.394177 C 72.640768 77.761066 72.922898 77.972953 73.33212 77.972953 C 73.896565 77.972953 74.1083 77.59196 74.1083 77.098071 L 74.1083 74.868233 C 74.1083 74.360232 73.924766 73.838322 73.310933 73.838322 z M 62.332792 73.887414 L 62.332792 77.923344 L 63.447452 77.923344 L 63.447452 73.887414 L 62.332792 73.887414 z M 68.407356 73.887414 L 68.407356 77.048462 C 68.407356 77.627017 68.661404 77.972953 69.162349 77.972953 C 69.599794 77.972953 69.867836 77.775377 69.973669 77.422599 L 69.987622 77.422599 L 69.987622 77.923344 L 71.102799 77.923344 L 71.102799 73.887414 L 69.987622 73.887414 L 69.987622 76.688794 C 69.987622 76.865183 69.959512 77.055696 69.747843 77.055696 C 69.536177 77.055696 69.522017 76.865183 69.522017 76.688794 L 69.522017 73.887414 L 68.407356 73.887414 z M 72.760579 74.755578 C 72.894635 74.755578 72.99364 74.85411 72.99364 75.030497 L 72.99364 76.780261 C 72.99364 76.95665 72.894633 77.055696 72.760579 77.055696 C 72.626524 77.055696 72.528035 76.956647 72.528035 76.780261 L 72.528035 75.030497 C 72.528035 74.854108 72.626526 74.755578 72.760579 74.755578 z M 157.35335 141.87293 C 156.82979 141.87558 156.48914 142.28849 156.28313 142.80569 C 155.96199 143.61192 156.16455 144.20902 156.83968 144.47794 L 158.62924 145.19056 C 159.32404 145.46731 159.86054 144.99734 160.12424 144.33531 C 160.41405 143.60774 160.35414 142.97656 159.64623 142.69458 L 159.09588 142.47496 L 158.68298 143.51055 L 159.16822 143.70382 C 159.39107 143.79262 159.5079 143.90014 159.44263 144.06401 C 159.38783 144.20166 159.219 144.22514 158.99614 144.13636 L 158.23547 143.83353 L 158.82044 142.36541 L 157.83704 141.9737 C 157.66067 141.90345 157.49995 141.87219 157.35335 141.87293 z M 157.14974 142.92454 C 157.18722 142.92315 157.22871 142.9314 157.27377 142.94935 L 157.78536 143.15295 L 157.61276 143.58549 L 157.10168 143.38188 C 156.95748 143.32448 156.9073 143.2212 156.96474 143.07699 C 157.0042 142.97785 157.0673 142.9276 157.14974 142.92454 z M 154.79536 144.0051 L 154.38299 145.04069 L 159.04989 146.8995 L 159.46226 145.8639 L 154.79536 144.0051 z M 155.72967 146.00291 C 155.20609 146.00616 154.83593 146.43894 154.63827 146.93515 C 154.39024 147.55785 154.40848 148.29372 155.16227 148.59397 L 155.50953 148.73246 L 155.92191 147.69686 L 155.50902 147.53253 C 155.35827 147.47253 155.252 147.37687 155.31988 147.20645 C 155.38778 147.03603 155.53087 147.03995 155.68162 147.1 C 156.37642 147.37675 155.67356 148.79764 156.65675 149.18928 L 157.21382 149.41149 C 157.70543 149.60731 158.09046 149.44159 158.2706 148.98929 C 158.43508 148.57634 158.29441 148.30001 158.07527 148.06842 L 158.08044 148.0555 L 158.51969 148.23016 L 158.93206 147.19457 L 156.15962 146.09024 C 156.00651 146.02925 155.86314 146.00208 155.72967 146.00291 z M 156.62523 147.47569 L 157.27428 147.73407 C 157.60858 147.86723 157.74233 147.95081 157.65617 148.16712 C 157.61697 148.26542 157.51489 148.33146 157.38384 148.27926 L 156.97766 148.11751 C 156.6827 148.00002 156.6885 147.73632 156.62523 147.47569 z M 154.59641 148.79499 C 154.07275 148.79789 153.73166 149.21162 153.52361 149.73395 C 153.2103 150.52051 153.45994 151.15148 154.07603 151.3969 L 155.82631 152.09401 C 156.54733 152.3812 157.05664 152.03704 157.36472 151.26357 C 157.65714 150.52944 157.5972 149.8981 156.88929 149.61613 L 156.33842 149.39702 L 155.92605 150.43261 L 156.50947 150.66516 C 156.64713 150.71996 156.75097 150.82168 156.68569 150.98555 C 156.62039 151.14942 156.47504 151.15252 156.33739 151.09769 L 154.38402 150.31944 C 154.24638 150.26464 154.14253 150.1624 154.2078 149.99853 C 154.2731 149.83466 154.41845 149.83209 154.5561 149.88691 L 154.98243 150.05641 L 155.39481 149.02081 L 155.0801 148.89576 C 154.90374 148.82551 154.74303 148.79417 154.59641 148.79499 z M 153.45488 151.56484 C 153.00717 151.57674 152.64287 151.9446 152.3981 152.5591 C 152.12657 153.24079 152.20998 153.88875 152.95723 154.18639 C 154.1764 154.67202 154.48633 153.0944 155.37776 153.44948 C 155.53508 153.51218 155.63837 153.61429 155.5731 153.77815 C 155.5078 153.94201 155.36248 153.94467 155.20516 153.88201 L 154.64137 153.65774 L 154.22899 154.69333 L 154.82534 154.93053 C 155.50048 155.19945 155.96 154.79002 156.2237 154.12799 C 156.56834 153.26278 156.35254 152.66034 155.61185 152.36531 C 154.39267 151.87968 153.93342 153.37565 153.29106 153.11979 C 153.13375 153.05709 153.03046 152.95501 153.09573 152.79113 C 153.16103 152.62727 153.30635 152.6246 153.46366 152.68726 L 153.86984 152.849 L 154.28273 151.81341 L 153.84969 151.64081 C 153.71204 151.58598 153.58024 151.56151 153.45488 151.56484 z M 151.76764 155.90411 C 151.31091 155.91123 150.93673 156.22809 150.69587 156.83274 C 150.37473 157.63897 150.57729 158.23607 151.25243 158.50499 L 153.04198 159.21761 C 153.73678 159.49436 154.27328 159.02439 154.53698 158.36236 C 154.80067 157.70034 154.73414 156.99063 154.03934 156.71388 L 152.24978 156.00075 C 152.081 155.93352 151.91989 155.90174 151.76764 155.90411 z M 151.57231 156.96038 C 151.62147 156.95927 151.67417 156.97186 151.72578 156.99242 L 153.67915 157.77015 C 153.8168 157.82495 153.92065 157.92719 153.85537 158.09106 C 153.79007 158.25493 153.64472 158.25751 153.50707 158.20268 L 151.5537 157.42495 C 151.41606 157.37015 151.31222 157.26791 151.37749 157.10404 C 151.4183 157.00162 151.49036 156.96223 151.57231 156.96038 z M 150.16464 158.29932 L 149.98481 158.75148 L 149.30939 158.48277 L 148.89702 159.51836 L 149.57243 159.7876 L 149.43394 160.13486 L 150.11555 160.40616 L 150.25404 160.0589 L 152.54124 160.96995 C 153.03285 161.16577 153.37109 161.15601 153.57735 160.63819 L 153.91428 159.79277 L 153.23267 159.52146 L 153.15154 159.72455 C 153.05494 159.96707 152.93411 159.92649 152.71125 159.83772 L 150.66642 159.0233 L 150.84677 158.57113 L 150.16464 158.29932 z M 149.27322 162.13061 C 148.81317 162.12818 148.43924 162.49806 148.18957 163.12486 C 147.91804 163.80655 148.00146 164.45503 148.74871 164.75267 C 149.96787 165.23829 150.27727 163.66068 151.16871 164.01576 C 151.32603 164.07846 151.42984 164.18056 151.36457 164.34443 C 151.29927 164.5083 151.15395 164.51095 150.99663 164.44829 L 150.43284 164.2235 L 150.02046 165.2591 L 150.61681 165.49681 C 151.29194 165.76573 151.75096 165.35629 152.01466 164.69427 C 152.3593 163.82906 152.14401 163.22661 151.40332 162.93159 C 150.18415 162.44596 149.72488 163.94193 149.08254 163.68607 C 148.92523 163.62337 148.82141 163.52128 148.88668 163.35741 C 148.95198 163.19354 149.09731 163.19036 149.25462 163.25302 L 149.66131 163.41528 L 150.07369 162.37969 L 149.64116 162.20709 C 149.51334 162.15617 149.39049 162.13123 149.27322 162.13061 z M 146.71731 164.28551 L 146.30493 165.32111 L 146.9669 165.58466 L 147.37928 164.54906 L 146.71731 164.28551 z M 147.63508 164.65087 L 147.22218 165.68646 L 150.97183 167.17991 L 151.3842 166.14432 L 147.63508 164.65087 z M 146.49923 167.50237 L 146.08427 168.54469 L 146.56899 168.73744 L 146.56383 168.75087 C 146.16555 168.75887 145.89221 168.8931 145.72512 169.3126 C 145.58413 169.66655 145.72497 170.0951 146.32146 170.33269 L 147.85522 170.94351 C 148.39926 171.16021 148.88262 171.10971 149.12543 170.50012 C 149.25858 170.16583 149.13366 169.81229 148.8257 169.65159 L 148.83345 169.63196 L 149.76415 170.00248 C 149.89524 170.05468 149.97258 170.14656 149.90729 170.31047 C 149.84199 170.47434 149.72315 170.48723 149.59206 170.43501 L 149.34298 170.33579 L 148.93009 171.37139 L 149.29751 171.51763 C 149.69735 171.6769 150.26266 171.40123 150.57857 170.60813 C 150.76134 170.14929 150.93038 169.26729 149.88817 168.85216 L 146.49923 167.50237 z M 147.01548 168.93536 C 147.06778 168.93644 147.12302 168.95097 147.17464 168.97153 L 148.24951 169.39941 C 148.38715 169.45421 148.51324 169.55767 148.44536 169.72808 C 148.37746 169.89851 148.21507 169.88677 148.07743 169.83195 L 147.00256 169.40406 C 146.86491 169.34926 146.73883 169.24582 146.80671 169.0754 C 146.84914 168.96889 146.92831 168.93356 147.01548 168.93536 z M 145.69308 170.51304 C 145.40387 170.52061 145.18325 170.6722 145.06159 170.97761 C 144.89972 171.384 144.98432 171.70632 145.27295 171.93518 L 145.26778 171.9481 L 144.80218 171.76258 L 144.3898 172.79869 L 148.13892 174.29214 L 148.5513 173.25603 L 145.94939 172.21991 C 145.78552 172.15461 145.61888 172.05795 145.69721 171.86128 C 145.77551 171.66464 145.95761 171.72161 146.12148 171.78686 L 148.7239 172.82349 L 149.13628 171.7879 L 146.19951 170.61846 C 146.01475 170.54486 145.84457 170.50908 145.69308 170.51304 z M 143.3542 172.72789 L 142.94182 173.76349 L 143.6038 174.02704 L 144.01669 172.99144 L 143.3542 172.72789 z M 144.27198 173.09325 L 143.8596 174.12884 L 147.60872 175.62229 L 148.02162 174.58669 L 144.27198 173.09325 z M 144.07251 174.6425 C 143.7765 174.63917 143.54605 174.78259 143.40898 175.12671 C 143.25755 175.50689 143.34214 175.82922 143.62809 176.06464 L 143.62292 176.07756 L 142.23954 175.52669 L 141.82716 176.56228 L 146.49406 178.4216 L 146.90644 177.38549 L 144.36964 176.37522 C 144.16644 176.29432 143.9662 176.20674 144.04977 175.99694 C 144.13337 175.78718 144.33904 175.86171 144.54224 175.94268 L 147.07904 176.95296 L 147.49142 175.91736 L 144.58772 174.76084 C 144.40071 174.68635 144.22756 174.64425 144.07251 174.6425 z M 69.386625 176.74419 L 69.089485 177.44595 L 69.843444 177.76479 L 68.182047 181.68962 L 69.260534 182.14592 L 70.921931 178.22161 L 71.675891 178.54046 L 71.972513 177.83869 L 69.386625 176.74419 z M 142.66639 177.12452 L 142.48604 177.57669 L 141.81114 177.30797 L 141.39877 178.34357 L 142.07366 178.61229 L 141.93517 178.96007 L 142.6173 179.23137 L 142.75527 178.88411 L 145.04299 179.79516 C 145.5346 179.99098 145.87284 179.98123 146.0791 179.4634 L 146.41551 178.61797 L 145.7339 178.34667 L 145.65329 178.54976 C 145.55669 178.79229 145.43586 178.7517 145.213 178.66293 L 143.16817 177.84851 L 143.348 177.39634 L 142.66639 177.12452 z M 72.206608 177.93739 L 70.248588 182.56347 L 71.274882 182.99858 L 72.339416 180.48401 C 72.424676 180.28259 72.516441 180.08385 72.724405 180.17188 C 72.932325 180.25988 72.853592 180.4645 72.76833 180.66591 L 71.703796 183.17997 L 72.730607 183.61457 L 73.94862 180.73619 C 74.176897 180.19691 74.127871 179.77025 73.608072 179.55022 C 73.231224 179.3907 72.907488 179.46831 72.666011 179.74917 L 72.653092 179.74297 L 73.233418 178.37199 L 72.206608 177.93739 z M 74.981115 179.11252 L 74.703096 179.76881 L 75.729907 180.20289 L 76.007409 179.54711 L 74.981115 179.11252 z M 142.38372 179.46185 C 141.92698 179.46897 141.55331 179.78583 141.31247 180.39047 C 140.99133 181.19671 141.19387 181.79379 141.86902 182.06272 L 143.65858 182.77534 C 144.35338 183.05209 144.88989 182.58212 145.15358 181.9201 C 145.41728 181.25807 145.35073 180.54838 144.65593 180.27162 L 142.86638 179.55848 C 142.69759 179.49125 142.53596 179.45948 142.38372 179.46185 z M 74.596126 180.02202 L 73.022578 183.73859 L 74.049389 184.17319 L 75.62242 180.45662 L 74.596126 180.02202 z M 142.1889 180.51811 C 142.23806 180.51701 142.29076 180.52908 142.34238 180.54964 L 144.29575 181.32788 C 144.4334 181.38268 144.53725 181.48489 144.47196 181.6488 C 144.40666 181.81266 144.26132 181.81525 144.12366 181.76042 L 142.1703 180.98269 C 142.03265 180.92789 141.92879 180.82569 141.99408 180.66178 C 142.03489 180.55936 142.10696 180.51996 142.1889 180.51811 z M 76.461128 180.8876 C 76.053367 180.88481 75.702604 181.08157 75.496846 181.56766 C 74.985286 182.77618 76.556122 183.11951 76.182076 184.00317 C 76.116066 184.1591 76.012187 184.26053 75.849796 184.19179 C 75.687369 184.12309 75.687157 183.97773 75.753161 183.82179 L 75.989839 183.26317 L 74.963545 182.82857 L 74.712915 183.41975 C 74.429628 184.08899 74.829239 184.55686 75.485477 184.83465 C 76.343133 185.19769 76.950291 184.99473 77.261079 184.26052 C 77.772639 183.052 76.287196 182.56098 76.55673 181.92423 C 76.62274 181.76829 76.726627 181.66687 76.889009 181.73561 C 77.051446 181.80441 77.05113 181.9502 76.985127 182.10613 L 76.814595 182.50869 L 77.841406 182.94329 L 78.02279 182.51438 C 78.286821 181.89063 77.915716 181.3737 77.136022 181.04366 C 76.903739 180.94534 76.674717 180.88906 76.461128 180.8876 z M 139.84279 181.54389 L 139.50328 182.39604 L 142.89842 183.74841 L 142.89325 183.76184 L 139.22164 183.104 L 138.62064 184.61141 L 143.28806 186.47072 L 143.62705 185.61858 L 139.72703 184.06519 L 139.7322 184.05175 L 143.95365 184.79899 L 144.50969 183.40321 L 139.84279 181.54389 z M 80.203019 182.39552 L 78.629988 186.11209 L 79.617525 186.53015 L 80.709448 183.95046 C 80.778208 183.78803 80.859149 183.61523 81.05413 183.69777 C 81.249046 183.78027 81.187487 183.96167 81.118725 184.1241 L 80.026802 186.70327 L 81.014855 187.12133 L 82.106262 184.54216 C 82.175022 184.37972 82.255972 184.20693 82.450944 184.28946 C 82.645869 184.37196 82.584817 184.55283 82.516056 184.71527 L 81.424133 187.29445 L 82.411669 187.71251 L 83.671024 184.73698 C 83.863548 184.28216 83.841707 183.88197 83.328409 183.66469 C 82.964555 183.51067 82.590778 183.59736 82.392032 183.90395 L 82.378597 183.89827 C 82.458406 183.51066 82.308142 183.23234 81.937797 183.07558 C 81.560939 182.91605 81.244422 183.01192 80.994702 183.31226 L 80.981783 183.30761 L 81.191072 182.81358 L 80.203019 182.39552 z M 84.827543 184.44501 C 84.433269 184.44758 84.071276 184.62396 83.873596 185.09096 L 83.727868 185.43513 L 84.754679 185.86973 L 84.927795 185.46045 C 84.991055 185.31101 85.089078 185.20652 85.258007 185.27803 C 85.426936 185.34953 85.419973 185.49238 85.356709 185.64183 C 85.065175 186.33055 83.659308 185.5974 83.246761 186.57201 L 83.013183 187.12443 C 82.806907 187.61174 82.964323 188.00023 83.412642 188.19 C 83.821979 188.36327 84.100914 188.22842 84.337133 188.0143 L 84.350052 188.0205 L 84.166084 188.4551 L 85.192378 188.8897 L 86.355615 186.14154 C 86.671902 185.39434 86.161026 184.8639 85.543778 184.60262 C 85.312307 184.50464 85.064107 184.44346 84.827543 184.44501 z M 87.051696 185.29457 L 85.126232 189.84261 L 86.153043 190.27721 L 86.711149 188.95791 L 86.724068 188.96411 C 86.672038 189.34049 86.849514 189.64537 87.226363 189.80489 C 87.746161 190.02491 88.089588 189.75641 88.282112 189.30156 L 89.15131 187.24845 C 89.349334 186.78063 89.383795 186.22838 88.818514 185.9891 C 88.441665 185.82958 88.101713 185.85431 87.88472 186.22216 L 87.871801 186.21648 L 88.07799 185.72917 L 87.051696 185.29457 z M 91.718595 186.19735 L 91.440576 186.85365 L 92.467386 187.28824 L 92.744889 186.63195 L 91.718595 186.19735 z M 84.960868 186.57769 L 84.688533 187.22107 C 84.548268 187.55243 84.461656 187.68392 84.247216 187.59314 C 84.149756 187.55194 84.086255 187.44872 84.14128 187.31873 L 84.311812 186.91566 C 84.435577 186.62328 84.698943 186.63537 84.960868 186.57769 z M 87.861466 186.5994 C 87.892037 186.59929 87.923627 186.60597 87.954484 186.61903 C 88.077938 186.67133 88.130204 186.80078 88.061454 186.9632 L 87.379325 188.57447 C 87.310565 188.7369 87.181325 188.7895 87.057897 188.73725 C 86.934443 188.68495 86.88166 188.5555 86.95041 188.39309 L 87.632539 186.7813 C 87.684109 186.65948 87.769753 186.59972 87.861466 186.5994 z M 91.333605 187.10686 L 89.760058 190.82343 L 90.786869 191.25803 L 92.359899 187.54146 L 91.333605 187.10686 z M 93.198608 187.97244 C 92.790847 187.96965 92.440083 188.16642 92.234326 188.6525 C 91.722766 189.86102 93.293602 190.20436 92.919555 191.08801 C 92.853545 191.24394 92.74915 191.34537 92.586759 191.27663 C 92.424323 191.20783 92.424637 191.06256 92.490641 190.90663 L 92.727319 190.34801 L 91.700508 189.91341 L 91.450394 190.50459 C 91.167107 191.17383 91.566719 191.6417 92.222957 191.91949 C 93.080622 192.28253 93.687255 192.07957 93.998042 191.34536 C 94.509602 190.13684 93.024159 189.64634 93.293693 189.00959 C 93.359702 188.85366 93.464016 188.7522 93.626489 188.82097 C 93.788926 188.88977 93.78861 189.03504 93.722607 189.19097 L 93.552075 189.59353 L 94.578885 190.02813 L 94.76027 189.59921 C 95.0243 188.97547 94.653195 188.45855 93.873502 188.1285 C 93.641219 188.03018 93.412197 187.9739 93.198608 187.97244 z M 97.471732 189.79714 C 97.077459 189.79971 96.715465 189.97609 96.517785 190.44309 L 96.372058 190.78726 L 97.398868 191.22185 L 97.571984 190.81258 C 97.635244 190.66314 97.732751 190.55918 97.90168 190.63068 C 98.070609 190.70218 98.064153 190.84452 98.000899 190.99396 C 97.709364 191.68269 96.303498 190.95004 95.89095 191.92465 L 95.656856 192.47656 C 95.45058 192.96387 95.607997 193.35235 96.056315 193.54213 C 96.465652 193.7154 96.745103 193.58055 96.981323 193.36643 L 96.994242 193.37159 L 96.809757 193.80723 L 97.836568 194.24183 L 98.999804 191.49367 C 99.316093 190.74647 98.805215 190.21603 98.187967 189.95475 C 97.956496 189.85677 97.708296 189.79559 97.471732 189.79714 z M 101.59448 190.37746 L 99.636458 195.00405 L 100.66275 195.43865 L 102.62129 190.81206 L 101.59448 190.37746 z M 102.91998 190.93867 L 102.64248 191.59496 L 103.66877 192.02956 L 103.94679 191.37327 L 102.91998 190.93867 z M 102.53499 191.84817 L 100.96196 195.56474 L 101.98825 195.99934 L 103.5618 192.28277 L 102.53499 191.84817 z M 97.604541 191.92982 L 97.332206 192.57319 C 97.19194 192.90455 97.105846 193.03603 96.891406 192.94526 C 96.793946 192.90396 96.730443 192.80086 96.785469 192.67086 L 96.956001 192.26779 C 97.079766 191.9754 97.342616 191.9875 97.604541 191.92982 z M 104.42635 192.72254 C 103.96999 192.71362 103.6253 192.94715 103.43054 193.40725 L 102.67968 195.1813 C 102.38814 195.87002 102.84613 196.41609 103.50237 196.69387 C 104.22359 196.99916 104.8564 196.95272 105.15343 196.251 L 105.38443 195.7053 L 104.35762 195.2707 L 104.15401 195.75181 C 104.06051 195.97272 103.95113 196.08723 103.78866 196.01846 C 103.65221 195.96066 103.63206 195.79134 103.72561 195.57043 L 104.04446 194.81647 L 105.49967 195.43245 L 105.91256 194.45783 C 106.25084 193.65865 105.7704 193.16413 105.11416 192.88635 C 104.86441 192.78063 104.63378 192.72659 104.42635 192.72254 z M 104.7054 193.53696 C 104.74239 193.53512 104.78372 193.54337 104.82839 193.56228 C 104.97133 193.62278 105.0098 193.73097 104.94931 193.87389 L 104.73434 194.38083 L 104.30594 194.19945 L 104.5204 193.6925 C 104.56199 193.59423 104.62402 193.54099 104.7054 193.53696 z " /></g></g></g></g></svg>
