<?xml version="1.0" encoding="UTF-8" standalone="no"?>
<!-- Created with Inkscape (http://www.inkscape.org/) -->

<svg
   width="210mm"
   height="297mm"
   viewBox="0 0 210 297"
   version="1.1"
   id="svg5"
   inkscape:version="1.3 (1:1.3+202307231459+0e150ed6c4)"
   xml:space="preserve"
   sodipodi:docname="porg_poster.svg"
   xmlns:inkscape="http://www.inkscape.org/namespaces/inkscape"
   xmlns:sodipodi="http://sodipodi.sourceforge.net/DTD/sodipodi-0.dtd"
   xmlns:xlink="http://www.w3.org/1999/xlink"
   xmlns="http://www.w3.org/2000/svg"
   xmlns:svg="http://www.w3.org/2000/svg"><sodipodi:namedview
     id="namedview7"
     pagecolor="#292929"
     bordercolor="#666666"
     borderopacity="1.0"
     inkscape:pageshadow="2"
     inkscape:pageopacity="0"
     inkscape:pagecheckerboard="0"
     inkscape:document-units="mm"
     showgrid="false"
     inkscape:showpageshadow="2"
     inkscape:deskcolor="#292929"
     showguides="true"
     inkscape:zoom="0.84096521"
     inkscape:cx="300.25023"
     inkscape:cy="511.31723"
     inkscape:window-width="2560"
     inkscape:window-height="1376"
     inkscape:window-x="0"
     inkscape:window-y="0"
     inkscape:window-maximized="1"
     inkscape:current-layer="layer3"><sodipodi:guide
       position="0,287"
       orientation="0,1"
       id="guide3"
       inkscape:locked="false"
       inkscape:label=""
       inkscape:color="rgb(0,134,229)" /><sodipodi:guide
       position="0,10"
       orientation="0,1"
       id="guide4"
       inkscape:locked="false"
       inkscape:label=""
       inkscape:color="rgb(0,134,229)" /><sodipodi:guide
       position="10,247.29026"
       orientation="-1,0"
       id="guide5"
       inkscape:locked="false"
       inkscape:label=""
       inkscape:color="rgb(0,134,229)" /><sodipodi:guide
       position="200,237.53708"
       orientation="-1,0"
       id="guide6"
       inkscape:locked="false"
       inkscape:label=""
       inkscape:color="rgb(0,134,229)" /></sodipodi:namedview><defs
     id="defs2"><linearGradient
       id="linearGradient25"
       inkscape:collect="always"><stop
         style="stop-color:#aba99c;stop-opacity:1"
         offset="0"
         id="stop25" /><stop
         style="stop-color:#b0afa3;stop-opacity:1;"
         offset="1"
         id="stop26" /></linearGradient><linearGradient
       id="linearGradient23"
       inkscape:collect="always"><stop
         style="stop-color:#000000;stop-opacity:1;"
         offset="0"
         id="stop23" /><stop
         style="stop-color:#000000;stop-opacity:0;"
         offset="1"
         id="stop24" /></linearGradient><linearGradient
       inkscape:collect="always"
       id="linearGradient46163"><stop
         style="stop-color:#20211c;stop-opacity:1;"
         offset="0.6803301"
         id="stop46159" /><stop
         style="stop-color:#6a4e24;stop-opacity:1;"
         offset="1"
         id="stop46161" /></linearGradient><linearGradient
       inkscape:collect="always"
       id="linearGradient33717"><stop
         style="stop-color:#bcbdb2;stop-opacity:1;"
         offset="0"
         id="stop33713" /><stop
         style="stop-color:#9e998a;stop-opacity:1;"
         offset="1"
         id="stop33715" /></linearGradient><linearGradient
       inkscape:collect="always"
       id="linearGradient28493"><stop
         style="stop-color:#ccd0c8;stop-opacity:1;"
         offset="0.74610221"
         id="stop28489" /><stop
         style="stop-color:#5d3535;stop-opacity:1;"
         offset="1"
         id="stop28491" /></linearGradient><linearGradient
       inkscape:collect="always"
       id="linearGradient25863"><stop
         style="stop-color:#2e1b1b;stop-opacity:1;"
         offset="0"
         id="stop25859" /><stop
         style="stop-color:#5d3535;stop-opacity:1;"
         offset="1"
         id="stop25861" /></linearGradient><linearGradient
       inkscape:collect="always"
       id="linearGradient17295"><stop
         style="stop-color:#ccd0c8;stop-opacity:1;"
         offset="0"
         id="stop17291" /><stop
         style="stop-color:#9e998a;stop-opacity:1;"
         offset="1"
         id="stop17293" /></linearGradient><linearGradient
       inkscape:collect="always"
       id="linearGradient1719"><stop
         style="stop-color:#20211c;stop-opacity:1;"
         offset="0"
         id="stop1715" /><stop
         style="stop-color:#d0cabc;stop-opacity:1;"
         offset="1"
         id="stop1717" /></linearGradient><linearGradient
       inkscape:collect="always"
       id="linearGradient1619"><stop
         style="stop-color:#ffffff;stop-opacity:1;"
         offset="0"
         id="stop1615" /><stop
         style="stop-color:#000000;stop-opacity:1;"
         offset="0.21087727"
         id="stop1617" /></linearGradient><radialGradient
       inkscape:collect="always"
       xlink:href="#linearGradient1619"
       id="radialGradient1623"
       cx="129.01216"
       cy="69.464348"
       fx="129.01216"
       fy="69.464348"
       r="4.0845118"
       gradientUnits="userSpaceOnUse" /><radialGradient
       inkscape:collect="always"
       xlink:href="#linearGradient1619"
       id="radialGradient1627"
       gradientUnits="userSpaceOnUse"
       cx="113.22132"
       cy="69.414268"
       fx="113.22132"
       fy="69.414268"
       r="4.0845118" /><linearGradient
       inkscape:collect="always"
       xlink:href="#linearGradient1719"
       id="linearGradient1721"
       x1="119.77979"
       y1="68.466347"
       x2="119.77979"
       y2="73.482422"
       gradientUnits="userSpaceOnUse"
       gradientTransform="translate(0.15167437)" /><linearGradient
       inkscape:collect="always"
       xlink:href="#linearGradient17295"
       id="linearGradient17297"
       x1="-120.98613"
       y1="-80.79985"
       x2="-120.98613"
       y2="-109.81666"
       gradientUnits="userSpaceOnUse" /><linearGradient
       inkscape:collect="always"
       xlink:href="#linearGradient25863"
       id="linearGradient25865"
       x1="-119.22816"
       y1="-87.8283"
       x2="-119.22816"
       y2="-86.182701"
       gradientUnits="userSpaceOnUse"
       gradientTransform="translate(0.00115586)" /><linearGradient
       inkscape:collect="always"
       xlink:href="#linearGradient28493"
       id="linearGradient28495"
       x1="-121.067"
       y1="-88.246651"
       x2="-121.067"
       y2="-88.890945"
       gradientUnits="userSpaceOnUse"
       gradientTransform="translate(0.0463296,-0.19753898)" /><linearGradient
       inkscape:collect="always"
       xlink:href="#linearGradient28493"
       id="linearGradient29501"
       gradientUnits="userSpaceOnUse"
       gradientTransform="translate(2.9061096,-0.19753898)"
       x1="-121.067"
       y1="-88.246651"
       x2="-121.067"
       y2="-88.890945" /><linearGradient
       inkscape:collect="always"
       xlink:href="#linearGradient28493"
       id="linearGradient29505"
       gradientUnits="userSpaceOnUse"
       gradientTransform="matrix(1,0,0,0.46833232,0.65543419,-47.386866)"
       x1="-121.067"
       y1="-88.246651"
       x2="-121.067"
       y2="-88.890945" /><linearGradient
       inkscape:collect="always"
       xlink:href="#linearGradient28493"
       id="linearGradient29509"
       gradientUnits="userSpaceOnUse"
       gradientTransform="matrix(1,0,0,0.46833232,1.1429011,-47.303493)"
       x1="-121.067"
       y1="-88.246651"
       x2="-121.067"
       y2="-88.890945" /><linearGradient
       inkscape:collect="always"
       xlink:href="#linearGradient28493"
       id="linearGradient29513"
       gradientUnits="userSpaceOnUse"
       gradientTransform="matrix(1,0,0,0.46833232,1.6303641,-47.303491)"
       x1="-121.067"
       y1="-88.246651"
       x2="-121.067"
       y2="-88.890945" /><linearGradient
       inkscape:collect="always"
       xlink:href="#linearGradient28493"
       id="linearGradient29517"
       gradientUnits="userSpaceOnUse"
       gradientTransform="matrix(1,0,0,0.46833232,2.117831,-47.386862)"
       x1="-121.067"
       y1="-88.246651"
       x2="-121.067"
       y2="-88.890945" /><clipPath
       clipPathUnits="userSpaceOnUse"
       id="clipPath33644"><path
         id="path33646"
         style="fill:#20211c;stroke-width:0.800002;stroke-linecap:round;paint-order:stroke fill markers;stop-color:#000000"
         d="m 103.03675,117.21855 c 0,-19.215812 0.66213,-36.971952 6.60689,-46.579856 5.94476,-9.607897 13.26901,-9.607897 19.21377,2e-6 5.94476,9.607902 6.60689,27.364042 6.60689,46.579854 h -16.21377 z"
         sodipodi:nodetypes="cssccc" /></clipPath><clipPath
       clipPathUnits="userSpaceOnUse"
       id="clipPath33653"><path
         id="path33655"
         style="fill:#20211c;stroke-width:0.800002;stroke-linecap:round;paint-order:stroke fill markers;stop-color:#000000"
         d="m 103.03675,117.21855 c 0,-19.215812 0.66213,-36.971952 6.60689,-46.579856 5.94476,-9.607897 13.26901,-9.607897 19.21377,2e-6 5.94476,9.607902 6.60689,27.364042 6.60689,46.579854 h -16.21377 z"
         sodipodi:nodetypes="cssccc" /></clipPath><linearGradient
       inkscape:collect="always"
       xlink:href="#linearGradient33717"
       id="linearGradient33719"
       x1="119.13657"
       y1="91.604347"
       x2="119.13657"
       y2="93.758057"
       gradientUnits="userSpaceOnUse"
       gradientTransform="matrix(1.1912049,0,0,1,-22.746747,0)" /><radialGradient
       inkscape:collect="always"
       xlink:href="#linearGradient46163"
       id="radialGradient46165"
       cx="156.37045"
       cy="-21.46302"
       fx="156.37045"
       fy="-21.46302"
       r="19.222658"
       gradientTransform="matrix(0.80233519,-0.80233519,0.70705154,0.70705154,39.62671,121.78418)"
       gradientUnits="userSpaceOnUse" /><linearGradient
       inkscape:collect="always"
       xlink:href="#linearGradient23"
       id="linearGradient24"
       x1="52.153484"
       y1="14.909575"
       x2="37.186729"
       y2="87.069046"
       gradientUnits="userSpaceOnUse"
       gradientTransform="matrix(0.63810589,0,0,0.63810589,5.6547469,8.7448389)" /><linearGradient
       inkscape:collect="always"
       xlink:href="#linearGradient25"
       id="linearGradient26"
       x1="103.52455"
       y1="208.08583"
       x2="103.83652"
       y2="178.88852"
       gradientUnits="userSpaceOnUse" /></defs><g
     inkscape:groupmode="layer"
     id="layer3"
     inkscape:label="Background"><rect
       style="display:inline;fill:#879c97;fill-opacity:1;stroke-width:0.8;stroke-linecap:round;paint-order:stroke fill markers;stop-color:#000000"
       id="rect7"
       width="190"
       height="277"
       x="10.000009"
       y="10.000004"
       ry="0" /><path
       style="fill:url(#linearGradient24);fill-opacity:1;stroke-width:1"
       d="m 24.607101,101.0827 c -0.285035,-0.62768 -0.25186,-1.480433 0.08313,-2.140796 0.148244,-0.292814 0.299769,-0.73305 0.336626,-0.978727 0.04097,-0.27397 0.195758,-0.634073 0.400112,-0.931507 0.626817,-0.911279 0.783255,-2.001604 0.433031,-3.01817 -0.128591,-0.372667 -0.255134,-0.559453 -0.454121,-0.66892 -0.189613,-0.104426 -0.316979,-0.282573 -0.40789,-0.571003 -0.07249,-0.23056 -0.238754,-0.645699 -0.369393,-0.92258 -0.219508,-0.464771 -0.230567,-0.551387 -0.143746,-1.129964 0.05737,-0.383725 0.06062,-0.793664 0.0082,-1.057763 -0.04626,-0.23712 -0.05813,-1.005999 -0.02457,-1.708503 0.05609,-1.211667 0.04626,-1.313802 -0.187565,-1.98694 -0.399697,-1.151379 -0.458588,-1.496984 -0.475785,-2.791165 -0.0164,-1.34722 -0.345643,-3.079639 -0.92131,-4.87271 -0.245307,-0.763271 -0.291174,-1.062964 -0.305914,-1.986935 -0.0082,-0.598441 0.02048,-1.263883 0.06962,-1.478759 0.06716,-0.301824 0.05239,-0.456622 -0.06389,-0.681248 -0.189198,-0.366113 -0.190838,-0.621496 -0.0038,-0.775726 0.129,-0.106883 0.123678,-0.143332 -0.04709,-0.32516 -0.235888,-0.251044 -0.243259,-0.391101 -0.02865,-0.512933 0.149891,-0.08436 0.135968,-0.123678 -0.142106,-0.411323 l -0.307554,-0.318204 2.04e-4,-2.455521 c 2.49e-4,-2.807341 0.356293,-11.62833 0.522883,-12.957855 0.02457,-0.208042 0.109754,-1.730575 0.185925,-3.383218 0.110986,-2.40601 0.169545,-3.064772 0.294046,-3.306027 0.09378,-0.18142 0.20681,-0.81213 0.284206,-1.584085 0.138832,-1.383133 0.267423,-5.442973 0.165448,-5.209458 -0.03274,0.07822 -0.140875,0.243258 -0.237114,0.367753 -0.09624,0.124086 -0.174867,0.294448 -0.174867,0.378403 0.0013,0.35547 -0.799968,2.12876 -1.094581,2.423373 -0.256774,0.256768 -0.324343,0.419682 -0.414852,1.00399 -0.05941,0.383316 -0.174866,0.825524 -0.25595,0.982166 -0.0815,0.156853 -0.42124,0.944818 -0.755294,1.751383 -0.510919,1.233778 -0.621496,1.601736 -0.69648,2.318124 -0.04913,0.468332 -0.115893,0.984253 -0.148653,1.146428 -0.05322,0.265369 -0.03274,0.301817 0.209675,0.362425 0.575833,0.144563 0.660114,0.443113 0.231383,0.819423 -0.151524,0.132688 -0.318612,0.408299 -0.371441,0.612403 -0.270289,1.043476 -0.384957,1.438585 -0.497614,1.714444 -0.109754,0.268241 -0.103609,0.325166 0.05239,0.497448 0.137601,0.15194 0.176507,0.345235 0.176922,0.879955 3.63e-4,0.376763 -0.03274,0.886335 -0.07454,1.132089 -0.05813,0.343186 -0.03688,0.524929 0.08477,0.784326 0.196983,0.414928 0.162174,0.652048 -0.101561,0.689843 -0.368168,0.05284 -0.563511,-0.296904 -0.737517,-1.319569 -0.052,-0.305506 -0.09747,-0.352196 -0.401745,-0.409121 -0.606424,-0.113845 -0.812621,0.295679 -0.665519,1.322364 0.11671,0.813808 0.44753,1.218827 1.231404,1.507302 0.402154,0.147836 0.451416,0.19616 0.425783,0.416938 -0.02048,0.163808 -0.119581,0.292808 -0.292399,0.375532 -0.233024,0.111394 -0.3137,0.101561 -0.696774,-0.08395 -0.589552,-0.285443 -1.708579,-1.379329 -1.783487,-1.743522 -0.03273,-0.156029 -0.138417,-0.542371 -0.235882,-0.858361 -0.134736,-0.436022 -0.157261,-0.664132 -0.09337,-0.946168 0.04626,-0.204354 0.112211,-0.697099 0.14702,-1.094914 0.06017,-0.686857 0.05284,-0.726579 -0.142923,-0.78866 -0.371442,-0.117948 -0.488483,-0.792726 -0.276019,-1.587901 0.09091,-0.339906 0.07576,-0.570058 -0.09461,-1.415727 -0.280524,-1.393049 -0.268649,-1.744831 0.07371,-2.210584 0.203945,-0.277251 0.314516,-0.588206 0.418661,-1.177676 0.07781,-0.440446 0.204354,-0.949852 0.280933,-1.132012 0.174458,-0.414482 0.500486,-2.046444 0.633499,-3.169651 0.07494,-0.633288 0.187973,-1.0386 0.441467,-1.581545 0.319021,-0.684075 0.336633,-0.769422 0.276434,-1.355331 -0.06553,-0.639963 0.04709,-1.15032 0.510676,-2.31427 0.09337,-0.234248 0.264144,-0.76639 0.379635,-1.182716 0.115484,-0.41632 0.306322,-0.948545 0.424346,-1.18271 0.117948,-0.234249 0.266193,-0.681204 0.329671,-0.993468 0.06349,-0.312059 0.258408,-1.014729 0.43381,-1.561158 0.244076,-0.761388 0.331305,-1.225546 0.373082,-1.98694 0.0573,-1.045269 0.04301,-1.002848 0.788501,-2.365382 0.213363,-0.390279 0.389455,-0.840673 0.390687,-1.000921 0.0038,-0.550774 0.853779,-1.552556 1.65829,-1.956509 0.15603,-0.07822 0.688331,-0.280939 1.182716,-0.449743 2.298011,-0.785387 3.34841,-1.247006 3.704779,-1.628153 0.190016,-0.203537 0.535863,-0.490448 0.768063,-0.637717 0.2322,-0.147428 0.56228,-0.442124 0.733586,-0.655239 0.326391,-0.40625 1.110795,-0.862546 1.482569,-0.862546 0.244075,0 0.265369,-0.07658 0.113844,-0.408299 -0.07986,-0.175275 -0.227287,-0.254725 -0.638655,-0.343996 -1.79577,-0.389054 -2.954775,-1.643186 -2.435165,-2.634976 0.30878,-0.589718 0.814383,-0.928028 2.07216,-1.386984 0.546148,-0.199439 0.609174,-0.330078 0.694559,-1.441081 0.09009,-1.171573 0.172818,-1.247376 1.502592,-1.378793 1.527862,-0.151115 4.086456,0.08682 4.825076,0.447981 0.579279,0.283391 0.655488,0.385773 0.744191,0.997974 l 0.06183,0.427668 0.612447,0.175277 c 1.004609,0.287897 2.005452,1.057561 2.406744,1.851263 0.229336,0.453305 0.482587,1.61427 0.490123,2.245599 0.0038,0.415624 -0.03688,0.561865 -0.214595,0.750987 -0.320246,0.340723 -1.116487,0.77228 -2.143991,1.161787 -0.891249,0.337858 -0.899768,0.343996 -1.019597,0.750004 -0.06634,0.225238 -0.19207,0.487825 -0.278885,0.58386 -0.08682,0.09624 -0.192069,0.324758 -0.233023,0.507856 -0.144155,0.638655 0.04384,0.780474 3.158796,2.38635 1.553743,0.800989 2.881757,1.531091 2.951087,1.622461 0.06921,0.09132 0.127366,0.247764 0.128999,0.347685 0.0013,0.09993 0.06962,0.255134 0.150708,0.344819 0.08108,0.08969 0.186334,0.437416 0.233841,0.772613 0.04754,0.335401 0.261278,1.179194 0.47505,1.875591 0.299361,0.975287 0.379629,1.375513 0.349733,1.742163 -0.05035,0.617488 0.347283,2.196335 1.15249,4.575679 0.111394,0.329256 0.227695,0.946745 0.25759,1.371915 0.02865,0.425948 0.106481,0.815531 0.169953,0.867658 0.06305,0.05201 0.144155,0.212955 0.180195,0.35711 0.03688,0.144562 0.209675,0.451421 0.385773,0.682313 0.316156,0.41415 0.496305,0.90837 0.392327,1.076396 -0.02865,0.04747 0.01225,0.141289 0.09378,0.20845 0.261687,0.21746 0.418495,0.636077 0.418495,1.118376 0,0.359975 0.06757,0.580172 0.285846,0.931386 0.225239,0.36284 0.305506,0.634271 0.379635,1.285011 0.08067,0.709255 0.139234,0.888709 0.418942,1.277762 0.578947,0.805903 0.73989,1.29586 0.677681,2.063354 -0.03274,0.427793 -0.0026,0.946005 0.08682,1.419256 0.197391,1.039538 0.304689,1.328339 0.634315,1.703666 0.282164,0.32107 0.285852,0.339913 0.225653,1.064731 -0.05896,0.708725 -0.04913,0.761554 0.25472,1.34431 0.174049,0.333762 0.376354,0.702542 0.44966,0.819833 0.195343,0.312467 0.0164,0.549415 -0.397648,0.524312 -0.302233,-0.0164 -0.331305,0.0082 -0.546678,0.503517 l -0.227696,0.522957 0.245716,1.010307 c 0.192478,0.790671 0.252268,1.302617 0.274794,2.354898 l 0.02865,1.344597 -0.520382,0.531358 c -0.286261,0.292399 -0.632803,0.590618 -0.770194,0.663062 -0.350965,0.185108 -1.311959,0.321892 -1.570206,0.223605 -0.196167,-0.07454 -0.309195,-0.368168 -0.143338,-0.371442 0.111394,-0.0026 0.58157,-0.380043 1.141514,-0.918406 l 0.51379,-0.493926 -0.04097,-0.566951 c -0.04384,-0.605562 -0.221557,-0.90292 -0.633295,-1.060423 -0.405842,-0.155213 -0.546263,-0.02865 -0.669533,0.60724 -0.127774,0.659094 -0.420135,1.392966 -0.554705,1.392966 -0.04875,0 -0.141696,-0.0643 -0.207217,-0.143337 -0.09378,-0.113028 -0.09542,-0.257182 -0.0082,-0.685951 0.06145,-0.298545 0.119995,-0.96853 0.131047,-1.488918 0.0164,-0.752953 0.06512,-1.054158 0.243257,-1.47495 l 0.224014,-0.528818 -0.35383,-0.532918 c -0.194525,-0.293216 -0.430286,-0.557201 -0.523698,-0.586847 -0.314108,-0.09952 -0.658519,-0.436599 -0.658806,-0.644308 -1.66e-4,-0.113443 -0.172825,-0.461498 -0.383317,-0.773717 -0.850997,-1.260603 -0.967713,-1.676195 -0.616174,-2.193591 0.133913,-0.196568 0.243259,-0.4531 0.243259,-0.569688 0,-0.116716 -0.282572,-0.776217 -0.627807,-1.465697 -0.47595,-0.950389 -0.695452,-1.5279 -0.907425,-2.387333 -0.203536,-0.825275 -0.381268,-1.302125 -0.653484,-1.752973 -0.205579,-0.340729 -0.482542,-0.981183 -0.615351,-1.423518 -0.132688,-0.442329 -0.341138,-1.102277 -0.46301,-1.466552 -0.23548,-0.704508 -0.480251,-2.148784 -0.389053,-2.296461 0.06183,-0.09951 -0.136369,-0.683909 -0.231792,-0.683909 -0.03273,0 -0.09009,0.214595 -0.124903,0.476774 -0.03273,0.262095 -0.192886,0.826424 -0.351781,1.25368 -0.161766,0.436145 -0.293631,0.984342 -0.300593,1.249916 -0.02457,0.890068 0.232609,3.02697 0.521327,4.35236 0.209675,0.962838 0.297727,1.644335 0.322294,2.495167 0.02865,0.926753 0.09133,1.380057 0.310426,2.176177 0.561131,2.041039 1.155476,4.590621 1.288814,5.528477 0.07535,0.530668 0.139241,1.603541 0.141698,2.384098 0.0082,2.575019 0.225239,3.594042 1.15069,5.412178 0.911604,1.790614 1.105678,2.284706 1.219854,3.105725 0.05488,0.392735 0.204762,0.993752 0.333353,1.335873 0.129,0.341954 0.209675,0.698528 0.180195,0.792061 -0.02865,0.09337 -0.233432,0.247764 -0.452532,0.342363 -0.341955,0.147843 -0.761962,0.179372 -2.953173,0.221557 -1.405046,0.02865 -2.608437,0.08395 -2.674245,0.126543 -0.06593,0.04256 -0.203945,0.24285 -0.307554,0.445315 -0.150708,0.295679 -0.167496,0.412765 -0.08396,0.595493 0.07986,0.17569 0.07126,0.289949 -0.03688,0.50196 -0.126543,0.244484 -0.126134,0.304682 0.0026,0.550685 0.111388,0.212138 0.11999,0.315748 0.03688,0.447 -0.142515,0.22811 -0.133505,0.450643 0.02865,0.764712 0.114667,0.219911 0.115899,0.29813 0.0082,0.505393 -0.09009,0.173233 -0.101976,0.332536 -0.0418,0.543398 0.114253,0.39888 0.108522,1.912282 -0.01232,2.903873 -0.138418,1.144462 -0.614981,3.526633 -0.996045,4.97713 -0.390284,1.48507 -0.42755,2.360431 -0.137193,3.20467 0.254318,0.739316 0.244893,1.195038 -0.03273,1.530236 -0.306731,0.371849 -0.349733,0.534222 -0.244076,0.91676 0.08068,0.291997 0.05692,0.388645 -0.194935,0.798085 -0.216228,0.351373 -0.286669,0.579235 -0.286669,0.926639 0,0.256773 -0.0905,0.678995 -0.204353,0.954032 -0.16012,0.38659 -0.18551,0.558923 -0.117533,0.796196 0.100744,0.350965 0.182243,0.405434 0.902065,0.601843 0.870772,0.237528 0.930811,0.323526 0.997563,1.43166 l 0.05737,0.953873 -0.311242,0.22155 c -0.250221,0.178147 -0.461249,0.228519 -1.077748,0.256366 -1.036999,0.04709 -1.390261,0.109754 -1.373345,0.244898 0.05609,0.446346 -0.03274,0.687306 -0.377586,1.014476 -0.300593,0.28626 -0.487947,0.3739 -1.007065,0.47173 -0.35055,0.0663 -0.871468,0.12368 -1.157237,0.12778 -0.475504,0.008 -0.541478,-0.0205 -0.778508,-0.30265 -0.280939,-0.33621 -0.436886,-1.05264 -0.289535,-1.328335 0.0573,-0.107706 0.02048,-0.478407 -0.111802,-1.096751 -0.189613,-0.891823 -0.191662,-0.954561 -0.04097,-1.380101 0.213772,-0.601351 0.20108,-0.769869 -0.09829,-1.346072 -0.228512,-0.44 -0.260456,-0.617974 -0.293216,-1.639211 -0.02865,-0.918445 -0.0082,-1.203761 0.115076,-1.438623 0.12572,-0.243258 0.135553,-0.402159 0.05858,-0.935935 -0.13637,-0.942157 -0.120398,-1.12038 0.126134,-1.416225 0.161767,-0.194112 0.342772,-0.759506 0.661021,-2.065153 0.631361,-2.590053 0.697909,-2.95318 0.964675,-5.262906 0.13228,-1.146383 0.281756,-2.299778 0.33172,-2.563099 0.04996,-0.263327 0.09091,-0.752467 0.09091,-1.087045 0,-0.334585 0.04301,-0.688664 0.09583,-0.786906 0.07658,-0.142923 0.03688,-0.243259 -0.189198,-0.502981 -0.156853,-0.178555 -0.285035,-0.416696 -0.285035,-0.529519 0,-0.11262 -0.06388,-0.32844 -0.1421,-0.479639 -0.110578,-0.213772 -0.118765,-0.325568 -0.03688,-0.505558 0.08068,-0.177324 0.06717,-0.442738 -0.05858,-1.13967 l -0.163808,-0.908695 -0.816763,0.07085 c -1.378423,0.119166 -2.293588,0.08805 -2.667774,-0.09133 -0.607738,-0.290766 -1.072388,-0.311651 -1.625409,-0.0729 -0.279299,0.120398 -0.777812,0.235065 -1.136147,0.261279 -0.351373,0.02457 -0.638617,0.06757 -0.638617,0.09378 0,0.02457 0.04748,0.205579 0.105658,0.399289 0.08682,0.288711 0.07699,0.411814 -0.05162,0.683743 -0.141283,0.297312 -0.142923,0.369393 -0.02048,0.699549 0.07618,0.202311 0.162583,0.602499 0.19207,0.889124 0.07699,0.750578 0.665155,2.827817 1.025825,3.623363 l 0.30878,0.680961 -0.02457,1.500876 c -0.02048,1.244919 0.0082,1.607963 0.156029,2.128836 0.09911,0.345235 0.205177,0.861233 0.235481,1.146306 0.04422,0.415056 0.112211,0.571533 0.340723,0.785387 0.23712,0.221557 0.285852,0.34073 0.285852,0.698082 0,0.340723 0.06266,0.509821 0.298544,0.80795 0.423817,0.535174 0.478407,1.155234 0.137193,1.560546 -0.306329,0.364065 -0.307963,0.624769 -0.01232,1.590517 0.185109,0.601472 0.302641,0.816227 0.571986,1.045562 0.38823,0.330488 0.546391,0.776664 0.556996,1.571349 0.0082,0.471649 -0.02865,0.57866 -0.300178,0.898867 -0.169136,0.199849 -0.712292,0.926064 -1.207124,1.6137 -0.661218,0.918892 -1.0748,1.389929 -1.560622,1.777591 -0.363656,0.289942 -0.729814,0.664166 -0.813929,0.831337 -0.412848,0.82048 -1.68176,1.58127 -2.637432,1.58127 -0.422388,0 -0.443107,-0.0123 -0.619531,-0.40216 z M 18.997327,56.146092 c -0.02865,-0.07535 -0.05239,-0.05284 -0.0573,0.0573 -0.0038,0.09993 0.0164,0.155621 0.04958,0.124086 0.03274,-0.03274 0.03274,-0.113028 0.0082,-0.18142 z"
       id="path22"
       sodipodi:nodetypes="csssssssssssssssssssscssssssscsssssssssssccsssssssssssssssssssssssssssssssssssssssssssscsssssssssscsssssssssscssssscsssssscsscssscscsssssssscssssssssssssssssssssssssssssssssssssssssssssssscssssssssssssssssssssssssscsssssssssscsssssssssssssssccsssss" /></g><g
     inkscape:label="Porg"
     inkscape:groupmode="layer"
     id="layer1"
     transform="translate(-92.543198,-61.176178)"
     sodipodi:insensitive="true"><g
       id="g2"
       inkscape:label="Porg"
       transform="matrix(3.5727257,0,0,3.5727257,-230.29341,-122.16208)"
       style="stroke-width:0.279899"><path
         id="path358"
         style="display:inline;opacity:0.218412;fill:#20211c;fill-opacity:1;stroke-width:0.223919;stroke-linecap:round;paint-order:stroke fill markers;stop-color:#000000"
         d="m 120.25062,64.43289 c -2.28534,0 -4.57068,1.140412 -6.74326,3.420464 -0.32363,-0.08109 -0.65597,-0.122219 -0.9896,-0.122475 -2.25581,10e-7 -4.08451,1.828695 -4.08451,4.084505 0.001,0.878816 0.28563,1.733838 0.81132,2.438092 -1.7933,3.860063 -2.97887,8.662625 -3.75739,14.116451 -4.75078,4.83041 -8.546427,9.755349 -10.053134,13.044163 -1.566465,3.42054 -0.424335,4.56267 2.996202,2.99621 1.620732,-0.74301 3.669352,-2.05696 5.954152,-3.8189 -0.28056,5.58708 -0.34778,10.53311 -0.34778,16.62715 l 16.214,1e-5 16.21348,-1e-5 c 0,-6.09422 -0.0672,-11.04043 -0.34778,-16.62766 2.28467,1.76196 4.33328,3.07608 5.95416,3.8194 3.42112,1.56694 4.56347,0.42478 2.99671,-2.9962 -1.50671,-3.288813 -5.30235,-8.21375 -10.05313,-13.044161 -0.77868,-5.455013 -1.96447,-10.258549 -3.75843,-14.119038 0.52424,-0.703866 0.80782,-1.557869 0.80874,-2.435509 0,-2.255809 -1.8287,-4.084502 -4.08451,-4.084503 -0.33212,9.7e-4 -0.66288,0.04244 -0.98495,0.123502 -2.17287,-2.280742 -4.4586,-3.421496 -6.74429,-3.421491 z"
         sodipodi:nodetypes="scccccccccccccccccccs"
         inkscape:label="shadow" /><path
         id="path29577"
         style="display:inline;fill:#20211c;stroke-width:0.223918;stroke-linecap:round;paint-order:stroke fill markers;stop-color:#000000"
         transform="scale(-1)"
         d="m -103.03675,-117.21855 c 0,19.215811 -0.66213,36.971952 -6.60689,46.579856 -5.94476,9.607898 -13.26901,9.607897 -19.21377,-2e-6 -5.94476,-9.607903 -6.60689,-27.364043 -6.60689,-46.579854 h 16.21377 z"
         sodipodi:nodetypes="cssccc"
         inkscape:label="body" /><g
         inkscape:groupmode="maskhelper"
         id="g33648"
         clip-path="url(#clipPath33653)"
         inkscape:label="brown patch right"
         style="stroke-width:0.279899"><g
           id="g12253"
           style="stroke-width:0.279899"><ellipse
             style="fill:#6a4e24;fill-opacity:1;stroke-width:0.223918;stroke-linecap:round;paint-order:stroke fill markers;stop-color:#000000"
             id="path1723"
             cx="74.557411"
             cy="127.74704"
             rx="5.0265245"
             ry="7.6559248"
             transform="rotate(-30)" /></g></g><g
         inkscape:groupmode="maskhelper"
         id="g33639"
         clip-path="url(#clipPath33644)"
         style="display:inline;stroke-width:0.279899"
         inkscape:label="brown patch left"><g
           id="g12249"
           style="stroke-width:0.279899"><ellipse
             style="fill:#6a4e24;fill-opacity:1;stroke-width:0.223918;stroke-linecap:round;paint-order:stroke fill markers;stop-color:#000000"
             id="ellipse4978"
             cx="-131.99055"
             cy="8.4965124"
             rx="5.0265245"
             ry="7.6559248"
             transform="matrix(-0.8660254,-0.5,-0.5,0.8660254,0,0)" /></g></g><g
         id="g40373"
         inkscape:label="eyes"
         style="stroke-width:0.279899"><circle
           style="fill:url(#radialGradient1623);fill-opacity:1;stroke-width:0.223918;stroke-linecap:round;paint-order:stroke fill markers;stop-color:#000000"
           id="circle1281"
           cx="126.97997"
           cy="70.815613"
           r="4.0845118" /><circle
           style="fill:url(#radialGradient1627);fill-opacity:1;stroke-width:0.223918;stroke-linecap:round;paint-order:stroke fill markers;stop-color:#000000"
           id="circle1625"
           cx="111.51788"
           cy="70.815613"
           r="4.0845118" /></g><g
         id="g12257"
         transform="translate(-0.15167437)"
         style="display:inline;stroke-width:0.279899"
         inkscape:label="White streak"><path
           id="rect1713"
           style="fill:url(#linearGradient1721);stroke-width:0.223918;stroke-linecap:round;paint-order:stroke fill markers;stop-color:#000000"
           d="m 116.15469,65.010706 c 1.57312,-0.700003 5.06962,-0.682854 6.49501,0 l -1,10.693925 h -4.49501 z"
           sodipodi:nodetypes="ccccc" /><path
           id="path5053"
           style="fill:url(#linearGradient17297);stroke-width:0.223918;stroke-linecap:round;paint-order:stroke fill markers;stop-color:#000000"
           transform="scale(-1)"
           d="m -109.93076,-117.21855 c 0,13.53528 -1.80525,31.257378 -4.73572,38.025021 -2.93047,6.767636 -6.54097,6.767636 -9.47144,-10e-7 -2.93047,-6.767643 -4.73572,-24.48974 -4.73572,-38.02502 h 9.47144 z"
           sodipodi:nodetypes="cssccc" /></g><g
         id="g40369"
         inkscape:label="mouth"
         style="stroke-width:0.279899"><g
           id="g12265"
           transform="translate(-0.05066558)"
           style="stroke-width:0.279899"><path
             style="fill:none;stroke:#000000;stroke-width:0.0740563px;stroke-linecap:butt;stroke-linejoin:miter;stroke-opacity:1"
             d="m 120.58191,78.566719 c 0.14495,-0.303042 0.21136,-0.652828 0.50106,-0.869727 0.48074,0.295013 0.73295,0.148922 1.03728,0.103419 l -1.02919,-0.106426"
             id="path12259"
             sodipodi:nodetypes="ccc" /><path
             style="fill:none;stroke:#000000;stroke-width:0.0740563px;stroke-linecap:butt;stroke-linejoin:miter;stroke-opacity:1"
             d="m 118.02047,78.566719 c -0.14495,-0.303042 -0.21136,-0.652828 -0.50106,-0.869727 -0.48074,0.295013 -0.73295,0.148922 -1.03728,0.103419 l 1.02919,-0.106426"
             id="path12261"
             sodipodi:nodetypes="ccc" /></g><path
           id="path12319"
           style="fill:#130e0b;fill-opacity:1;stroke-width:0.223918;stroke-linecap:round;paint-order:stroke fill markers;stop-color:#000000"
           d="m 115.2541,90.115412 c -1.04185,-1.999866 0.76193,-5.924942 1.99878,-7.464658 1.23685,-1.539714 2.76071,-1.539714 3.99756,0 1.23685,1.539716 3.03482,5.464506 1.99878,7.464658 -1.03603,2.000153 -1.71096,-0.918047 -3.99756,-0.918047 -2.28659,0 -2.95571,2.917914 -3.99756,0.918047 z"
           sodipodi:nodetypes="zsszzz" /><path
           style="fill:url(#linearGradient25865);fill-opacity:1;stroke-width:0.223918;stroke-linecap:round;paint-order:stroke fill markers;stop-color:#000000"
           id="path17384"
           sodipodi:type="arc"
           sodipodi:cx="-119.24939"
           sodipodi:cy="-88.617744"
           sodipodi:rx="1.1271182"
           sodipodi:ry="4.1351204"
           sodipodi:start="0"
           sodipodi:end="3.1415927"
           sodipodi:arc-type="slice"
           d="m -118.12227,-88.617744 a 1.1271182,4.1351204 0 0 1 -0.56356,3.581119 1.1271182,4.1351204 0 0 1 -1.12712,0 1.1271182,4.1351204 0 0 1 -0.56356,-3.581119 h 1.12712 z"
           transform="scale(-1)" /><path
           style="fill:#5d3535;fill-opacity:1;stroke-width:0.223918;stroke-linecap:round;paint-order:stroke fill markers;stop-color:#000000"
           d="m 123.53199,88.128471 c -0.0409,0.361037 -0.13127,0.694733 -0.28267,0.98702 -1.03602,2.000151 -1.71109,-0.91829 -3.99768,-0.91829 -2.28659,0 -2.95584,2.918155 -3.99769,0.91829 -0.15269,-0.293081 -0.24355,-0.627912 -0.28474,-0.990121 -0.0718,0.748783 -8.7e-4,1.44183 0.28474,1.99006 1.04185,1.999865 1.7111,-0.918291 3.99769,-0.918291 2.28659,0 2.96166,2.918442 3.99768,0.918291 0.28363,-0.547553 0.35417,-1.239351 0.28267,-1.986959 z"
           id="path21700" /><g
           id="g40352"
           inkscape:label="teeth"
           style="stroke-width:0.279899"><path
             style="fill:url(#linearGradient28495);fill-opacity:1;stroke-width:0.223918;stroke-linecap:round;paint-order:stroke fill markers;stop-color:#000000"
             id="path19362"
             sodipodi:type="arc"
             sodipodi:cx="-120.67928"
             sodipodi:cy="-89.300629"
             sodipodi:rx="0.19425303"
             sodipodi:ry="1.7128708"
             sodipodi:start="0"
             sodipodi:end="3.1415927"
             sodipodi:arc-type="slice"
             d="m -120.48503,-89.300629 a 0.19425303,1.7128708 0 0 1 -0.0971,1.48339 0.19425303,1.7128708 0 0 1 -0.19425,0 0.19425303,1.7128708 0 0 1 -0.0971,-1.48339 h 0.19426 z"
             transform="scale(-1)" /><path
             style="fill:url(#linearGradient29501);fill-opacity:1;stroke-width:0.223918;stroke-linecap:round;paint-order:stroke fill markers;stop-color:#000000"
             id="path29499"
             sodipodi:type="arc"
             sodipodi:cx="-117.8195"
             sodipodi:cy="-89.300629"
             sodipodi:rx="0.19425303"
             sodipodi:ry="1.7128708"
             sodipodi:start="0"
             sodipodi:end="3.1415927"
             sodipodi:arc-type="slice"
             d="m -117.62525,-89.300629 a 0.19425303,1.7128708 0 0 1 -0.0971,1.48339 0.19425303,1.7128708 0 0 1 -0.19425,0 0.19425303,1.7128708 0 0 1 -0.0971,-1.48339 h 0.19426 z"
             transform="scale(-1)" /><g
             id="g29523"
             transform="translate(-0.08959198,-0.12378096)"
             style="stroke-width:0.279899"><path
               style="fill:url(#linearGradient29505);fill-opacity:1;stroke-width:0.223919;stroke-linecap:round;paint-order:stroke fill markers;stop-color:#000000"
               id="path29503"
               sodipodi:type="arc"
               sodipodi:cx="-120.07018"
               sodipodi:cy="-89.116722"
               sodipodi:rx="0.19425303"
               sodipodi:ry="0.80219275"
               sodipodi:start="0"
               sodipodi:end="3.1415927"
               sodipodi:arc-type="slice"
               d="m -119.87593,-89.116722 a 0.19425303,0.80219275 0 0 1 -0.0971,0.694719 0.19425303,0.80219275 0 0 1 -0.19425,0 0.19425303,0.80219275 0 0 1 -0.0971,-0.694719 h 0.19426 z"
               transform="scale(-1)" /><path
               style="fill:url(#linearGradient29509);fill-opacity:1;stroke-width:0.223919;stroke-linecap:round;paint-order:stroke fill markers;stop-color:#000000"
               id="path29507"
               sodipodi:type="arc"
               sodipodi:cx="-119.58272"
               sodipodi:cy="-89.033348"
               sodipodi:rx="0.19425303"
               sodipodi:ry="0.80219275"
               sodipodi:start="0"
               sodipodi:end="3.1415927"
               sodipodi:arc-type="slice"
               d="m -119.38846,-89.033348 a 0.19425303,0.80219275 0 0 1 -0.0971,0.694719 0.19425303,0.80219275 0 0 1 -0.19425,0 0.19425303,0.80219275 0 0 1 -0.0971,-0.694719 h 0.19425 z"
               transform="scale(-1)" /><path
               style="fill:url(#linearGradient29513);fill-opacity:1;stroke-width:0.223919;stroke-linecap:round;paint-order:stroke fill markers;stop-color:#000000"
               id="path29511"
               sodipodi:type="arc"
               sodipodi:cx="-119.09525"
               sodipodi:cy="-89.033348"
               sodipodi:rx="0.19425303"
               sodipodi:ry="0.80219275"
               sodipodi:start="0"
               sodipodi:end="3.1415927"
               sodipodi:arc-type="slice"
               d="m -118.901,-89.033348 a 0.19425303,0.80219275 0 0 1 -0.0971,0.694719 0.19425303,0.80219275 0 0 1 -0.19425,0 0.19425303,0.80219275 0 0 1 -0.0971,-0.694719 h 0.19426 z"
               transform="scale(-1)" /><path
               style="fill:url(#linearGradient29517);fill-opacity:1;stroke-width:0.223919;stroke-linecap:round;paint-order:stroke fill markers;stop-color:#000000"
               id="path29515"
               sodipodi:type="arc"
               sodipodi:cx="-118.60779"
               sodipodi:cy="-89.116722"
               sodipodi:rx="0.19425303"
               sodipodi:ry="0.80219275"
               sodipodi:start="0"
               sodipodi:end="3.1415927"
               sodipodi:arc-type="slice"
               d="m -118.41354,-89.116722 a 0.19425303,0.80219275 0 0 1 -0.0971,0.694719 0.19425303,0.80219275 0 0 1 -0.19425,0 0.19425303,0.80219275 0 0 1 -0.0971,-0.694719 h 0.19425 z"
               transform="scale(-1)" /></g></g><path
           style="fill:url(#linearGradient33719);fill-opacity:1;stroke-width:0.223918;stroke-linecap:round;paint-order:stroke fill markers;stop-color:#000000"
           id="path33711"
           sodipodi:type="arc"
           sodipodi:cx="119.25053"
           sodipodi:cy="91.057243"
           sodipodi:rx="4.1809492"
           sodipodi:ry="3.1377015"
           sodipodi:start="0"
           sodipodi:end="3.1415927"
           sodipodi:arc-type="slice"
           d="m 123.43148,91.057243 a 4.1809492,3.1377015 0 0 1 -2.09048,2.71733 4.1809492,3.1377015 0 0 1 -4.18095,0 4.1809492,3.1377015 0 0 1 -2.09047,-2.71733 h 4.18095 z"
           inkscape:label="chin" /></g><g
         id="g1"
         inkscape:label="flippers"
         style="stroke-width:0.279899"><path
           style="display:inline;fill:#20211c;fill-opacity:1;stroke-width:0.223919;stroke-linecap:round;paint-order:stroke fill markers;stop-color:#000000"
           id="path38207"
           sodipodi:type="arc"
           sodipodi:cx="139.89716"
           sodipodi:cy="-12.869282"
           sodipodi:rx="4.2374825"
           sodipodi:ry="19.742817"
           sodipodi:start="0"
           sodipodi:end="3.1415927"
           sodipodi:arc-type="slice"
           d="m 144.13464,-12.869282 a 4.2374825,19.742817 0 0 1 -2.11874,17.0977814 4.2374825,19.742817 0 0 1 -4.23749,-5e-7 4.2374825,19.742817 0 0 1 -2.11874,-17.0977809 h 4.23749 z"
           transform="rotate(45)" /><path
           style="display:inline;fill:#20211c;fill-opacity:1;stroke-width:0.223919;stroke-linecap:round;paint-order:stroke fill markers;stop-color:#000000"
           id="path38451"
           sodipodi:type="arc"
           sodipodi:cx="-28.748558"
           sodipodi:cy="155.77643"
           sodipodi:rx="4.2374825"
           sodipodi:ry="19.742817"
           sodipodi:start="0"
           sodipodi:end="3.1415927"
           sodipodi:arc-type="slice"
           d="m -24.511075,155.77643 a 4.2374825,19.742817 0 0 1 -2.118742,17.09778 4.2374825,19.742817 0 0 1 -4.237482,0 4.2374825,19.742817 0 0 1 -2.118742,-17.09778 h 4.237483 z"
           transform="matrix(-0.70710678,0.70710678,0.70710678,0.70710678,0,0)" /><path
           id="path40450"
           style="display:inline;fill:url(#radialGradient46165);fill-opacity:1;stroke-width:0.223919;stroke-linecap:round;paint-order:stroke fill markers;stop-color:#000000"
           d="m 137.07388,-11.454796 a 19.742817,4.2374825 90 0 0 2.11863,17.0974195 19.742817,4.2374825 90 0 0 0.53459,1.2120569 19.742817,4.2374825 90 0 0 2.28855,-2.6261842 19.742817,4.2374825 90 0 0 2.1073,-15.6836582 h -2.81144 z m 20.11678,-20.116782 v 4.237266 2.811445 a 19.742817,4.2374825 0 0 0 15.68329,-2.10694 19.742817,4.2374825 0 0 0 2.62947,-2.288182 19.742817,4.2374825 0 0 0 -1.21498,-0.535322 19.742817,4.2374825 0 0 0 -17.09778,-2.118267 z"
           transform="rotate(45)" /></g></g></g><g
     inkscape:groupmode="layer"
     id="layer2"
     inkscape:label="Text"><text
       xml:space="preserve"
       style="font-style:normal;font-variant:normal;font-weight:normal;font-stretch:normal;font-size:12.9721px;line-height:1.25;font-family:'Fira Sans Compressed';-inkscape-font-specification:'Fira Sans Compressed';fill:#000000;stroke-width:0.264583"
       x="50.19614"
       y="26.372036"
       id="text2"
       inkscape:label="Proprietary software"><tspan
         sodipodi:role="line"
         style="font-style:normal;font-variant:normal;font-weight:normal;font-stretch:normal;font-size:12.9721px;font-family:Crystal;-inkscape-font-specification:Crystal;fill:#000000;stroke-width:0.264583"
         x="50.19614"
         y="26.372036"
         id="tspan3">Proprietary software?</tspan></text><g
       id="g24"
       transform="translate(0,-20)"><rect
         style="opacity:1;fill:#d8dfdd;fill-opacity:1;stroke:none;stroke-width:0.705556;stroke-linejoin:bevel;stroke-miterlimit:10;paint-order:stroke fill markers"
         id="rect22"
         width="190.00002"
         height="71.5485"
         x="10"
         y="235.45151" /><path
         d="m 16.844282,300.86108 v -7.53869 h 4.498568 v 2.732 l -1.622771,1.76657 h -1.068153 v 3.04012 z m 1.807644,-4.51911 h 0.369745 l 0.513535,-0.53407 v -1.00653 h -0.88328 z m 3.51258,4.51911 v -7.53869 h 4.498569 v 7.53869 z m 2.690925,-1.47898 v -4.58073 H 23.97215 v 4.58073 z m 2.6293,1.47898 v -7.53869 h 4.498568 v 2.732 l -0.965446,1.04762 0.965446,1.02707 v 2.732 h -1.807644 v -2.71146 l -0.328663,-0.32866 h -0.554617 v 3.04012 z m 1.807644,-4.51911 h 0.554617 l 0.328663,-0.32866 v -1.21194 h -0.88328 z m 3.512579,4.51911 v -7.53869 h 4.498569 v 2.56767 h -1.807644 v -1.08869 h -0.883281 v 4.58073 h 0.883281 v -1.56114 h -0.492994 v -1.47899 h 2.300638 v 4.51911 z m 5.320225,0 v -1.47898 h 1.807644 v 1.47898 z m 2.629301,0 v -7.53869 h 2.875797 l 1.622771,1.62277 v 5.91592 z m 2.711466,-1.49952 v -3.96449 l -0.595701,-0.5957 h -0.308121 v 4.56019 z m 2.608757,-6.03917 h 1.807644 v 7.53869 h -1.807644 z m 2.629301,7.53869 v -7.53869 h 4.498568 v 2.56767 h -1.807643 v -1.08869 h -0.883281 v 4.58073 h 0.883281 v -1.56114 h -0.492994 v -1.47899 h 2.300637 v 4.51911 z m 5.320225,-7.53869 h 1.807644 v 7.53869 h -1.807644 z m 2.629299,1.47898 v -1.47898 h 4.498568 v 1.47898 h -1.355733 v 6.05971 H 57.98872 v -6.05971 z m 5.217518,6.05971 0.328662,-7.53869 h 3.810431 l 0.338934,7.53869 h -1.807644 l -0.05135,-2.2082 h -0.760032 l -0.05135,2.2082 z m 2.547134,-3.69745 -0.08217,-2.36226 h -0.472453 l -0.08217,2.36226 z m 2.649842,-3.84124 h 1.807644 v 6.05971 h 2.690924 v 1.47898 h -4.498568 z m 4.320224,1.47898 v -1.47898 h 4.498569 v 1.47898 h -1.355733 v 6.05971 h -1.807644 v -6.05971 z m 5.546181,6.05971 -0.328663,-7.53869 h 1.807644 l 0.184873,6.05971 h 0.472452 l 0.205414,-6.05971 h 1.787103 l 0.205414,6.05971 h 0.472452 l 0.184873,-6.05971 h 1.807644 l -0.328663,7.53869 h -3.040128 l -0.123249,-2.21847 h -0.14379 l -0.123248,2.21847 z m 7.518154,-7.53869 h 1.807644 v 7.53869 h -1.807644 z m 2.629296,7.53869 v -7.53869 h 1.807644 l 0.88328,2.91688 v -2.91688 h 1.807644 v 7.53869 h -1.74602 l -0.944904,-2.91688 v 2.91688 z m 5.320228,0 v -1.47898 h 1.807644 v 1.47898 z m 2.629303,-7.53869 h 1.807644 v 6.05971 h 2.690922 v 1.47898 h -4.498566 z m 5.320222,0 h 1.80764 v 6.05971 h 0.88328 v -6.05971 h 1.80764 v 7.53869 h -4.49856 z"
         id="text7-4"
         style="font-size:10.5172px;line-height:1.25;font-family:'No Continue';-inkscape-font-specification:'No Continue';stroke-width:0.264583"
         aria-label="porg.digitaltwin.lu"
         sodipodi:nodetypes="ccccccccccccccccccccccccccccccccccccccccccccccccccccccccccccccccccccccccccccccccccccccccccccccccccccccccccccccccccccccccccccccccccccccccccccccccccccccccccccccccccccccccccccccccccccccccccccccccc"
         inkscape:label="URL path" /><text
         xml:space="preserve"
         style="font-style:normal;font-variant:normal;font-weight:normal;font-stretch:normal;font-size:8.10035px;line-height:1.25;font-family:'No Continue';-inkscape-font-specification:'No Continue';stroke-width:0.264583"
         x="136.99409"
         y="290.76047"
         id="text27"><tspan
           sodipodi:role="line"
           style="font-style:normal;font-variant:normal;font-weight:normal;font-stretch:normal;font-size:8.10035px;font-family:'No Continue';-inkscape-font-specification:'No Continue';stroke-width:0.264583"
           x="136.99409"
           y="290.76047"
           id="tspan27">Second mondays</tspan><tspan
           sodipodi:role="line"
           style="font-style:normal;font-variant:normal;font-weight:normal;font-stretch:normal;font-size:8.10035px;font-family:'No Continue';-inkscape-font-specification:'No Continue';stroke-width:0.264583"
           x="136.99409"
           y="300.88593"
           id="tspan28">of the month</tspan></text><g
         id="g22"
         transform="matrix(1.0006491,0,0,1.0006491,-0.01093288,-0.15856512)"
         style="stroke-width:0.999351"><text
           xml:space="preserve"
           style="font-style:normal;font-variant:normal;font-weight:normal;font-stretch:normal;font-size:17.3988px;line-height:1.25;font-family:'No Continue';-inkscape-font-specification:'No Continue';stroke-width:0.264411"
           x="32.842247"
           y="256.7728"
           id="text7"><tspan
             sodipodi:role="line"
             style="font-style:normal;font-variant:normal;font-weight:normal;font-stretch:normal;font-size:17.3988px;font-family:'No Continue';-inkscape-font-specification:'No Continue';stroke-width:0.264411"
             x="32.842247"
             y="256.7728"
             id="tspan9">Join the Productivity</tspan><tspan
             sodipodi:role="line"
             style="font-style:normal;font-variant:normal;font-weight:normal;font-stretch:normal;font-size:17.3988px;font-family:'No Continue';-inkscape-font-specification:'No Continue';stroke-width:0.264411"
             x="32.842247"
             y="278.5213"
             id="tspan8">Open Research Group</tspan></text><text
           xml:space="preserve"
           style="font-size:17.591px;line-height:1.25;font-family:sans-serif;stroke-width:0.264411"
           x="-279.20844"
           y="29.453455"
           id="text11"
           transform="rotate(-90)"><tspan
             sodipodi:role="line"
             id="tspan11"
             style="font-style:normal;font-variant:normal;font-weight:normal;font-stretch:normal;font-family:'No Continue';-inkscape-font-specification:'No Continue';stroke-width:0.264411"
             x="-279.20844"
             y="29.453455">PORG</tspan></text></g><text
         xml:space="preserve"
         style="font-style:normal;font-variant:normal;font-weight:normal;font-stretch:normal;font-size:22.2263px;line-height:1.25;font-family:'No Continue';-inkscape-font-specification:'No Continue';stroke-width:0.264583"
         x="110.47957"
         y="300.88589"
         id="text30"><tspan
           sodipodi:role="line"
           style="font-style:normal;font-variant:normal;font-weight:normal;font-stretch:normal;font-size:22.2263px;font-family:'No Continue';-inkscape-font-specification:'No Continue';stroke-width:0.264583"
           x="110.47957"
           y="300.88589"
           id="tspan30">12:</tspan></text></g><g
       id="g25"
       inkscape:label="No in many languages"><text
         xml:space="preserve"
         style="font-size:25.4px;line-height:1.25;font-family:sans-serif;stroke-width:0.264583"
         x="46.530449"
         y="185.18391"
         id="text6"
         transform="rotate(-45)"><tspan
           sodipodi:role="line"
           id="tspan6"
           style="font-style:normal;font-variant:normal;font-weight:normal;font-stretch:normal;font-size:25.4px;font-family:'No Continue';-inkscape-font-specification:'No Continue';stroke-width:0.264583"
           x="46.530449"
           y="185.18391">HET!</tspan></text><text
         xml:space="preserve"
         style="font-size:18.178px;line-height:1.25;font-family:sans-serif;stroke-width:0.264583"
         x="187.30124"
         y="-36.51672"
         id="text12"
         transform="rotate(45)"><tspan
           sodipodi:role="line"
           id="tspan12"
           style="font-style:normal;font-variant:normal;font-weight:normal;font-stretch:normal;font-size:18.178px;font-family:'No Continue';-inkscape-font-specification:'No Continue';stroke-width:0.264583"
           x="187.30124"
           y="-36.51672">No!</tspan></text><text
         xml:space="preserve"
         style="font-size:18.178px;line-height:1.25;font-family:sans-serif;stroke-width:0.264583"
         x="68.284302"
         y="41.606537"
         id="text13"
         transform="rotate(45)"><tspan
           sodipodi:role="line"
           id="tspan13"
           style="font-style:normal;font-variant:normal;font-weight:normal;font-stretch:normal;font-size:18.178px;font-family:'No Continue';-inkscape-font-specification:'No Continue';stroke-width:0.264583"
           x="68.284302"
           y="41.606537">NoN!</tspan></text><text
         xml:space="preserve"
         style="font-size:10.6157px;line-height:1.25;font-family:sans-serif;stroke-width:0.264583"
         x="52.422764"
         y="195.84081"
         id="text14"
         transform="rotate(-45)"><tspan
           sodipodi:role="line"
           id="tspan14"
           style="font-style:normal;font-variant:normal;font-weight:normal;font-stretch:normal;font-size:10.6157px;font-family:'No Continue';-inkscape-font-specification:'No Continue';stroke-width:0.264583"
           x="52.422764"
           y="195.84081">Nein!</tspan></text><text
         xml:space="preserve"
         style="font-size:10.6157px;line-height:1.25;font-family:sans-serif;stroke-width:0.264583"
         x="197.89075"
         y="-52.570076"
         id="text15"
         transform="rotate(45)"><tspan
           sodipodi:role="line"
           id="tspan15"
           style="font-style:normal;font-variant:normal;font-weight:normal;font-stretch:normal;font-size:10.6157px;font-family:'No Continue';-inkscape-font-specification:'No Continue';stroke-width:0.264583"
           x="197.89075"
           y="-52.570076">EZ!</tspan></text><text
         xml:space="preserve"
         style="font-size:18.178px;line-height:1.25;font-family:sans-serif;stroke-width:0.264583"
         x="-73.190575"
         y="116.44408"
         id="text16"
         transform="rotate(-45)"><tspan
           sodipodi:role="line"
           id="tspan16"
           style="font-style:normal;font-variant:normal;font-weight:normal;font-stretch:normal;font-size:18.178px;font-family:'No Continue';-inkscape-font-specification:'No Continue';stroke-width:0.264583"
           x="-73.190575"
           y="116.44408">níl!</tspan></text><text
         xml:space="preserve"
         style="font-size:11.9609px;line-height:1.25;font-family:sans-serif;stroke-width:0.264583"
         x="76.952454"
         y="54.28809"
         id="text17"
         transform="rotate(45)"><tspan
           sodipodi:role="line"
           id="tspan17"
           style="font-style:normal;font-variant:normal;font-weight:normal;font-stretch:normal;font-size:11.9609px;font-family:'No Continue';-inkscape-font-specification:'No Continue';stroke-width:0.264583"
           x="76.952454"
           y="54.28809">Nee!</tspan></text><text
         xml:space="preserve"
         style="font-size:9.15608px;line-height:1.25;font-family:sans-serif;stroke-width:0.264583"
         x="36.16748"
         y="220.78311"
         id="text18"
         transform="rotate(-45)"><tspan
           sodipodi:role="line"
           id="tspan18"
           style="font-style:normal;font-variant:normal;font-weight:normal;font-stretch:normal;font-size:9.15608px;font-family:'No Continue';-inkscape-font-specification:'No Continue';stroke-width:0.264583"
           x="36.16748"
           y="220.78311">HAYIR!</tspan></text><text
         xml:space="preserve"
         style="font-size:12.1205px;line-height:1.25;font-family:sans-serif;stroke-width:0.264583"
         x="-25.405064"
         y="99.157898"
         id="text19"
         transform="rotate(-45)"><tspan
           sodipodi:role="line"
           id="tspan19"
           style="font-style:normal;font-variant:normal;font-weight:normal;font-stretch:normal;font-size:12.1205px;font-family:'No Continue';-inkscape-font-specification:'No Continue';stroke-width:0.264583"
           x="-25.405064"
           y="99.157898">ei!</tspan></text><text
         xml:space="preserve"
         style="font-size:10.6157px;line-height:1.25;font-family:sans-serif;stroke-width:0.264583"
         x="62.004574"
         y="162.45134"
         id="text20"
         transform="rotate(-45)"><tspan
           sodipodi:role="line"
           id="tspan20"
           style="font-style:normal;font-variant:normal;font-weight:normal;font-stretch:normal;font-size:10.6157px;font-family:'No Continue';-inkscape-font-specification:'No Continue';stroke-width:0.264583"
           x="62.004574"
           y="162.45134">¡No!</tspan></text><text
         xml:space="preserve"
         style="font-size:8.79852px;line-height:1.25;font-family:sans-serif;stroke-width:0.264583"
         x="197.30742"
         y="-26.650963"
         id="text21"
         transform="rotate(45)"><tspan
           sodipodi:role="line"
           id="tspan21"
           style="font-style:normal;font-variant:normal;font-weight:normal;font-stretch:normal;font-size:8.79852px;font-family:'No Continue';-inkscape-font-specification:'No Continue';stroke-width:0.264583"
           x="197.30742"
           y="-26.650963">kahore!</tspan></text><text
         xml:space="preserve"
         style="font-size:11.3112px;line-height:1.25;font-family:sans-serif;stroke-width:0.264583"
         x="67.618118"
         y="24.642057"
         id="text24"
         transform="rotate(45)"><tspan
           sodipodi:role="line"
           id="tspan24"
           style="font-style:normal;font-variant:normal;font-weight:normal;font-stretch:normal;font-size:11.3112px;font-family:'No Continue';-inkscape-font-specification:'No Continue';stroke-width:0.264583"
           x="67.618118"
           y="24.642057">yox!</tspan></text></g><path
       d="m 89.057571,179.35912 h 1 v 1 h -1 z m 1,0 h 1 v 1 h -1 z m 1,0 h 1 v 1 h -1 z m 1,0 h 1 v 1 h -1 z m 1,0 h 1 v 1 h -1 z m 1,0 h 1 v 1 h -1 z m 1,0 h 1 v 1 h -1 z m 2,0 h 1 v 1 h -1 z m 2.999999,0 h 1 v 1 h -1 z m 2,0 h 1 v 1 h -1 z m 1,0 h 1 v 1 h -1 z m 1,0 h 1 v 1 h -1 z m 2,0 h 1 v 1 h -1 z m 1,0 h 1 v 1 h -1 z m 1,0 h 1 v 1 h -1 z m 1,0 h 1 v 1 h -1 z m 2,0 h 1 v 1 h -1 z m 1,0 h 1 v 1 h -1 z m 1,0 h 1 v 1 h -1 z m 1,0 h 1 v 1 h -1 z m 1,0 h 1 v 1 h -1 z m 1,0 h 1 v 1 h -1 z m 1,0 h 1 v 1 h -1 z m -27.999999,1 h 1 v 1 h -1 z m 6,0 h 1 v 1 h -1 z m 2,0 h 1 v 1 h -1 z m 2,0 h 0.999999 v 1 h -0.999999 z m 2.999999,0 h 1 v 1 h -1 z m 3,0 h 1 v 1 h -1 z m 1,0 h 1 v 1 h -1 z m 5,0 h 1 v 1 h -1 z m 6,0 h 1 v 1 h -1 z m -27.999999,1 h 1 v 1 h -1 z m 2,0 h 1 v 1 h -1 z m 1,0 h 1 v 1 h -1 z m 1,0 h 1 v 1 h -1 z m 2,0 h 1 v 1 h -1 z m 4,0 h 0.999999 v 1 h -0.999999 z m 5.999999,0 h 1 v 1 h -1 z m 2,0 h 1 v 1 h -1 z m 2,0 h 1 v 1 h -1 z m 2,0 h 1 v 1 h -1 z m 2,0 h 1 v 1 h -1 z m 1,0 h 1 v 1 h -1 z m 1,0 h 1 v 1 h -1 z m 2,0 h 1 v 1 h -1 z m -27.999999,1 h 1 v 1 h -1 z m 2,0 h 1 v 1 h -1 z m 1,0 h 1 v 1 h -1 z m 1,0 h 1 v 1 h -1 z m 2,0 h 1 v 1 h -1 z m 2,0 h 1 v 1 h -1 z m 1,0 h 1 v 1 h -1 z m 1,0 h 0.999999 v 1 h -0.999999 z m 3.999999,0 h 1 v 1 h -1 z m 1,0 h 1 v 1 h -1 z m 2,0 h 1 v 1 h -1 z m 3,0 h 1 v 1 h -1 z m 2,0 h 1 v 1 h -1 z m 2,0 h 1 v 1 h -1 z m 1,0 h 1 v 1 h -1 z m 1,0 h 1 v 1 h -1 z m 2,0 h 1 v 1 h -1 z m -27.999999,1 h 1 v 1 h -1 z m 2,0 h 1 v 1 h -1 z m 1,0 h 1 v 1 h -1 z m 1,0 h 1 v 1 h -1 z m 2,0 h 1 v 1 h -1 z m 4,0 h 0.999999 v 1 h -0.999999 z m 0.999999,0 h 1 v 1 h -1 z m 3,0 h 1 v 1 h -1 z m 2,0 h 1 v 1 h -1 z m 3,0 h 1 v 1 h -1 z m 3,0 h 1 v 1 h -1 z m 2,0 h 1 v 1 h -1 z m 1,0 h 1 v 1 h -1 z m 1,0 h 1 v 1 h -1 z m 2,0 h 1 v 1 h -1 z m -27.999999,1 h 1 v 1 h -1 z m 6,0 h 1 v 1 h -1 z m 6.999999,0 h 1 v 1 h -1 z m 2,0 h 1 v 1 h -1 z m 1,0 h 1 v 1 h -1 z m 1,0 h 1 v 1 h -1 z m 1,0 h 1 v 1 h -1 z m 1,0 h 1 v 1 h -1 z m 3,0 h 1 v 1 h -1 z m 6,0 h 1 v 1 h -1 z m -27.999999,1 h 1 v 1 h -1 z m 1,0 h 1 v 1 h -1 z m 1,0 h 1 v 1 h -1 z m 1,0 h 1 v 1 h -1 z m 1,0 h 1 v 1 h -1 z m 1,0 h 1 v 1 h -1 z m 1,0 h 1 v 1 h -1 z m 2,0 h 1 v 1 h -1 z m 2,0 h 0.999999 v 1 h -0.999999 z m 1.999999,0 h 1 v 1 h -1 z m 2,0 h 1 v 1 h -1 z m 2,0 h 1 v 1 h -1 z m 2,0 h 1 v 1 h -1 z m 2,0 h 1 v 1 h -1 z m 2,0 h 1 v 1 h -1 z m 1,0 h 1 v 1 h -1 z m 1,0 h 1 v 1 h -1 z m 1,0 h 1 v 1 h -1 z m 1,0 h 1 v 1 h -1 z m 1,0 h 1 v 1 h -1 z m 1,0 h 1 v 1 h -1 z m -19.999999,1 h 1 v 1 h -1 z m 1,0 h 1 v 1 h -1 z m 1,0 h 0.999999 v 1 h -0.999999 z m 0.999999,0 h 1 v 1 h -1 z m 1,0 h 1 v 1 h -1 z m 3,0 h 1 v 1 h -1 z m 1,0 h 1 v 1 h -1 z m 1,0 h 1 v 1 h -1 z m -16.999999,1 h 1 v 1 h -1 z m 2,0 h 1 v 1 h -1 z m 1,0 h 1 v 1 h -1 z m 2,0 h 1 v 1 h -1 z m 1,0 h 1 v 1 h -1 z m 1,0 h 1 v 1 h -1 z m 2,0 h 1 v 1 h -1 z m 1,0 h 0.999999 v 1 h -0.999999 z m 2.999999,0 h 1 v 1 h -1 z m 2,0 h 1 v 1 h -1 z m 2,0 h 1 v 1 h -1 z m 2,0 h 1 v 1 h -1 z m 1,0 h 1 v 1 h -1 z m 2,0 h 1 v 1 h -1 z m 3,0 h 1 v 1 h -1 z m 2,0 h 1 v 1 h -1 z m 1,0 h 1 v 1 h -1 z m -26.999999,1 h 1 v 1 h -1 z m 2,0 h 1 v 1 h -1 z m 1,0 h 1 v 1 h -1 z m 1,0 h 1 v 1 h -1 z m 4,0 h 1 v 1 h -1 z m 1.999999,0 h 1 v 1 h -1 z m 2,0 h 1 v 1 h -1 z m 1,0 h 1 v 1 h -1 z m 1,0 h 1 v 1 h -1 z m 2,0 h 1 v 1 h -1 z m 1,0 h 1 v 1 h -1 z m 1,0 h 1 v 1 h -1 z m 1,0 h 1 v 1 h -1 z m 1,0 h 1 v 1 h -1 z m 1,0 h 1 v 1 h -1 z m 2,0 h 1 v 1 h -1 z m 4,0 h 1 v 1 h -1 z m -24.999999,1 h 1 v 1 h -1 z m 3,0 h 1 v 1 h -1 z m 1,0 h 1 v 1 h -1 z m 2,0 h 1 v 1 h -1 z m 1,0 h 0.999999 v 1 h -0.999999 z m 0.999999,0 h 1 v 1 h -1 z m 2,0 h 1 v 1 h -1 z m 3,0 h 1 v 1 h -1 z m 2,0 h 1 v 1 h -1 z m 2,0 h 1 v 1 h -1 z m 1,0 h 1 v 1 h -1 z m 1,0 h 1 v 1 h -1 z m 2,0 h 1 v 1 h -1 z m 2,0 h 1 v 1 h -1 z m 1,0 h 1 v 1 h -1 z m -26.999999,1 h 1 v 1 h -1 z m 1,0 h 1 v 1 h -1 z m 2,0 h 1 v 1 h -1 z m 1,0 h 1 v 1 h -1 z m 4,0 h 1 v 1 h -1 z m 2.999999,0 h 1 v 1 h -1 z m 1,0 h 1 v 1 h -1 z m 4,0 h 1 v 1 h -1 z m 3,0 h 1 v 1 h -1 z m 1,0 h 1 v 1 h -1 z m 3,0 h 1 v 1 h -1 z m 5,0 h 1 v 1 h -1 z m -27.999999,1 h 1 v 1 h -1 z m 1,0 h 1 v 1 h -1 z m 1,0 h 1 v 1 h -1 z m 4,0 h 1 v 1 h -1 z m 2,0 h 1 v 1 h -1 z m 1,0 h 1 v 1 h -1 z m 4.999999,0 h 1 v 1 h -1 z m 1,0 h 1 v 1 h -1 z m 2,0 h 1 v 1 h -1 z m 2,0 h 1 v 1 h -1 z m 6,0 h 1 v 1 h -1 z m 1,0 h 1 v 1 h -1 z m -24.999999,1 h 1 v 1 h -1 z m 2,0 h 1 v 1 h -1 z m 1,0 h 1 v 1 h -1 z m 1,0 h 1 v 1 h -1 z m 2,0 h 1 v 1 h -1 z m 3,0 h 0.999999 v 1 h -0.999999 z m 0.999999,0 h 1 v 1 h -1 z m 1,0 h 1 v 1 h -1 z m 2,0 h 1 v 1 h -1 z m 2,0 h 1 v 1 h -1 z m 3,0 h 1 v 1 h -1 z m 3,0 h 1 v 1 h -1 z m 4,0 h 1 v 1 h -1 z m 1,0 h 1 v 1 h -1 z m 1,0 h 1 v 1 h -1 z m -25.999999,1 h 1 v 1 h -1 z m 4,0 h 1 v 1 h -1 z m 1,0 h 1 v 1 h -1 z m 3.999999,0 h 1 v 1 h -1 z m 2,0 h 1 v 1 h -1 z m 2,0 h 1 v 1 h -1 z m 1,0 h 1 v 1 h -1 z m 2,0 h 1 v 1 h -1 z m 1,0 h 1 v 1 h -1 z m 1,0 h 1 v 1 h -1 z m 1,0 h 1 v 1 h -1 z m 1,0 h 1 v 1 h -1 z m 2,0 h 1 v 1 h -1 z m 2,0 h 1 v 1 h -1 z m 1,0 h 1 v 1 h -1 z m 1,0 h 1 v 1 h -1 z m -26.999999,1 h 1 v 1 h -1 z m 2,0 h 1 v 1 h -1 z m 6,0 h 1 v 1 h -1 z m 1,0 h 0.999999 v 1 h -0.999999 z m 0.999999,0 h 1 v 1 h -1 z m 1,0 h 1 v 1 h -1 z m 2,0 h 1 v 1 h -1 z m 2,0 h 1 v 1 h -1 z m 2,0 h 1 v 1 h -1 z m 3,0 h 1 v 1 h -1 z m 3,0 h 1 v 1 h -1 z m 3,0 h 1 v 1 h -1 z m -24.999999,1 h 1 v 1 h -1 z m 2,0 h 1 v 1 h -1 z m 2,0 h 1 v 1 h -1 z m 3,0 h 1 v 1 h -1 z m 1,0 h 0.999999 v 1 h -0.999999 z m 1.999999,0 h 1 v 1 h -1 z m 2,0 h 1 v 1 h -1 z m 1,0 h 1 v 1 h -1 z m 1,0 h 1 v 1 h -1 z m 2,0 h 1 v 1 h -1 z m 2,0 h 1 v 1 h -1 z m 1,0 h 1 v 1 h -1 z m 3,0 h 1 v 1 h -1 z m 1,0 h 1 v 1 h -1 z m 2,0 h 1 v 1 h -1 z m -25.999999,1 h 1 v 1 h -1 z m 1,0 h 1 v 1 h -1 z m 2,0 h 1 v 1 h -1 z m 4,0 h 1 v 1 h -1 z m 1,0 h 1 v 1 h -1 z m 1,0 h 0.999999 v 1 h -0.999999 z m 0.999999,0 h 1 v 1 h -1 z m 3,0 h 1 v 1 h -1 z m 2,0 h 1 v 1 h -1 z m 2,0 h 1 v 1 h -1 z m 2,0 h 1 v 1 h -1 z m 3,0 h 1 v 1 h -1 z m 2,0 h 1 v 1 h -1 z m 1,0 h 1 v 1 h -1 z m 1,0 h 1 v 1 h -1 z m -26.999999,1 h 1 v 1 h -1 z m 4,0 h 1 v 1 h -1 z m 1,0 h 1 v 1 h -1 z m 1,0 h 1 v 1 h -1 z m 2,0 h 1 v 1 h -1 z m 2,0 h 0.999999 v 1 h -0.999999 z m 0.999999,0 h 1 v 1 h -1 z m 2,0 h 1 v 1 h -1 z m 1,0 h 1 v 1 h -1 z m 1,0 h 1 v 1 h -1 z m 1,0 h 1 v 1 h -1 z m 5,0 h 1 v 1 h -1 z m 1,0 h 1 v 1 h -1 z m 1,0 h 1 v 1 h -1 z m 3,0 h 1 v 1 h -1 z m -22.999999,1 h 1 v 1 h -1 z m 1,0 h 1 v 1 h -1 z m 3,0 h 1 v 1 h -1 z m 1,0 h 1 v 1 h -1 z m 1,0 h 1 v 1 h -1 z m 1.999999,0 h 1 v 1 h -1 z m 2,0 h 1 v 1 h -1 z m 1,0 h 1 v 1 h -1 z m 3,0 h 1 v 1 h -1 z m 1,0 h 1 v 1 h -1 z m 3,0 h 1 v 1 h -1 z m 3,0 h 1 v 1 h -1 z m 2,0 h 1 v 1 h -1 z m -24.999999,1 h 1 v 1 h -1 z m 2,0 h 1 v 1 h -1 z m 2,0 h 1 v 1 h -1 z m 1,0 h 1 v 1 h -1 z m 2,0 h 1 v 1 h -1 z m 1,0 h 1 v 1 h -1 z m 1,0 h 0.999999 v 1 h -0.999999 z m 1.999999,0 h 1 v 1 h -1 z m 1,0 h 1 v 1 h -1 z m 1,0 h 1 v 1 h -1 z m 2,0 h 1 v 1 h -1 z m 1,0 h 1 v 1 h -1 z m 2,0 h 1 v 1 h -1 z m 1,0 h 1 v 1 h -1 z m 1,0 h 1 v 1 h -1 z m 1,0 h 1 v 1 h -1 z m 1,0 h 1 v 1 h -1 z m 1,0 h 1 v 1 h -1 z m 1,0 h 1 v 1 h -1 z m 1,0 h 1 v 1 h -1 z m -17.999999,1 h 1 v 1 h -1 z m 2,0 h 0.999999 v 1 h -0.999999 z m 1.999999,0 h 1 v 1 h -1 z m 3,0 h 1 v 1 h -1 z m 1,0 h 1 v 1 h -1 z m 1,0 h 1 v 1 h -1 z m 1,0 h 1 v 1 h -1 z m 1,0 h 1 v 1 h -1 z m 1,0 h 1 v 1 h -1 z m 4,0 h 1 v 1 h -1 z m 1,0 h 1 v 1 h -1 z m 1,0 h 1 v 1 h -1 z m 1,0 h 1 v 1 h -1 z m 1,0 h 1 v 1 h -1 z m -27.999999,1 h 1 v 1 h -1 z m 1,0 h 1 v 1 h -1 z m 1,0 h 1 v 1 h -1 z m 1,0 h 1 v 1 h -1 z m 1,0 h 1 v 1 h -1 z m 1,0 h 1 v 1 h -1 z m 1,0 h 1 v 1 h -1 z m 2,0 h 1 v 1 h -1 z m 2,0 h 0.999999 v 1 h -0.999999 z m 1.999999,0 h 1 v 1 h -1 z m 2,0 h 1 v 1 h -1 z m 1,0 h 1 v 1 h -1 z m 3,0 h 1 v 1 h -1 z m 1,0 h 1 v 1 h -1 z m 1,0 h 1 v 1 h -1 z m 2,0 h 1 v 1 h -1 z m 2,0 h 1 v 1 h -1 z m 1,0 h 1 v 1 h -1 z m 2,0 h 1 v 1 h -1 z m -26.999999,1 h 1 v 1 h -1 z m 6,0 h 1 v 1 h -1 z m 2,0 h 1 v 1 h -1 z m 1,0 h 1 v 1 h -1 z m 1,0 h 0.999999 v 1 h -0.999999 z m 2.999999,0 h 1 v 1 h -1 z m 1,0 h 1 v 1 h -1 z m 1,0 h 1 v 1 h -1 z m 3,0 h 1 v 1 h -1 z m 2,0 h 1 v 1 h -1 z m 4,0 h 1 v 1 h -1 z m 1,0 h 1 v 1 h -1 z m 3,0 h 1 v 1 h -1 z m -27.999999,1 h 1 v 1 h -1 z m 2,0 h 1 v 1 h -1 z m 1,0 h 1 v 1 h -1 z m 1,0 h 1 v 1 h -1 z m 2,0 h 1 v 1 h -1 z m 3,0 h 1 v 1 h -1 z m 1,0 h 0.999999 v 1 h -0.999999 z m 1.999999,0 h 1 v 1 h -1 z m 4,0 h 1 v 1 h -1 z m 2,0 h 1 v 1 h -1 z m 2,0 h 1 v 1 h -1 z m 1,0 h 1 v 1 h -1 z m 1,0 h 1 v 1 h -1 z m 1,0 h 1 v 1 h -1 z m 1,0 h 1 v 1 h -1 z m 2,0 h 1 v 1 h -1 z m 2,0 h 1 v 1 h -1 z m -27.999999,1 h 1 v 1 h -1 z m 2,0 h 1 v 1 h -1 z m 1,0 h 1 v 1 h -1 z m 1,0 h 1 v 1 h -1 z m 2,0 h 1 v 1 h -1 z m 2,0 h 1 v 1 h -1 z m 1,0 h 1 v 1 h -1 z m 3.999999,0 h 1 v 1 h -1 z m 6,0 h 1 v 1 h -1 z m 1,0 h 1 v 1 h -1 z m 1,0 h 1 v 1 h -1 z m 2,0 h 1 v 1 h -1 z m 1,0 h 1 v 1 h -1 z m 1,0 h 1 v 1 h -1 z m 2,0 h 1 v 1 h -1 z m -26.999999,1 h 1 v 1 h -1 z m 2,0 h 1 v 1 h -1 z m 1,0 h 1 v 1 h -1 z m 1,0 h 1 v 1 h -1 z m 2,0 h 1 v 1 h -1 z m 2,0 h 1 v 1 h -1 z m 1,0 h 1 v 1 h -1 z m 1.999999,0 h 1 v 1 h -1 z m 6,0 h 1 v 1 h -1 z m 1,0 h 1 v 1 h -1 z m 1,0 h 1 v 1 h -1 z m 1,0 h 1 v 1 h -1 z m 3,0 h 1 v 1 h -1 z m 3,0 h 1 v 1 h -1 z m 2,0 h 1 v 1 h -1 z m -27.999999,1 h 1 v 1 h -1 z m 6,0 h 1 v 1 h -1 z m 4.999999,0 h 1 v 1 h -1 z m 1,0 h 1 v 1 h -1 z m 2,0 h 1 v 1 h -1 z m 1,0 h 1 v 1 h -1 z m 2,0 h 1 v 1 h -1 z m 1,0 h 1 v 1 h -1 z m 2,0 h 1 v 1 h -1 z m 4,0 h 1 v 1 h -1 z m 1,0 h 1 v 1 h -1 z m 2,0 h 1 v 1 h -1 z m -26.999999,1 h 1 v 1 h -1 z m 1,0 h 1 v 1 h -1 z m 1,0 h 1 v 1 h -1 z m 1,0 h 1 v 1 h -1 z m 1,0 h 1 v 1 h -1 z m 1,0 h 1 v 1 h -1 z m 1,0 h 1 v 1 h -1 z m 2,0 h 1 v 1 h -1 z m 4.999999,0 h 1 v 1 h -1 z m 4,0 h 1 v 1 h -1 z m 1,0 h 1 v 1 h -1 z m 1,0 h 1 v 1 h -1 z m 1,0 h 1 v 1 h -1 z m 1,0 h 1 v 1 h -1 z m 1,0 h 1 v 1 h -1 z m 1,0 h 1 v 1 h -1 z m 2,0 h 1 v 1 h -1 z m 2,0 h 1 v 1 h -1 z"
       id="qr-path"
       fill="#000000"
       fill-opacity="1"
       fill-rule="nonzero"
       stroke="none"
       style="fill:url(#linearGradient26);fill-opacity:1" /></g></svg>
