<?xml version="1.0" encoding="UTF-8" standalone="no"?>
<!-- Created with Inkscape (http://www.inkscape.org/) -->

<svg
   width="55.884354mm"
   height="56.042381mm"
   viewBox="0 0 55.884353 56.042382"
   version="1.1"
   id="svg5"
   inkscape:version="1.2.2 (1:1.2.2+202305151915+b0a8486541)"
   xml:space="preserve"
   sodipodi:docname="porg.svg"
   xmlns:inkscape="http://www.inkscape.org/namespaces/inkscape"
   xmlns:sodipodi="http://sodipodi.sourceforge.net/DTD/sodipodi-0.dtd"
   xmlns:xlink="http://www.w3.org/1999/xlink"
   xmlns="http://www.w3.org/2000/svg"
   xmlns:svg="http://www.w3.org/2000/svg"><sodipodi:namedview
     id="namedview7"
     pagecolor="#292929"
     bordercolor="#666666"
     borderopacity="1.0"
     inkscape:pageshadow="2"
     inkscape:pageopacity="0"
     inkscape:pagecheckerboard="0"
     inkscape:document-units="mm"
     showgrid="false"
     inkscape:showpageshadow="2"
     inkscape:deskcolor="#292929"
     showguides="true"
     inkscape:zoom="4.7572176"
     inkscape:cx="138.94677"
     inkscape:cy="122.23532"
     inkscape:window-width="2560"
     inkscape:window-height="1376"
     inkscape:window-x="0"
     inkscape:window-y="0"
     inkscape:window-maximized="1"
     inkscape:current-layer="layer1" /><defs
     id="defs2"><linearGradient
       inkscape:collect="always"
       id="linearGradient46163"><stop
         style="stop-color:#20211c;stop-opacity:1;"
         offset="0.6803301"
         id="stop46159" /><stop
         style="stop-color:#6a4e24;stop-opacity:1;"
         offset="1"
         id="stop46161" /></linearGradient><linearGradient
       inkscape:collect="always"
       id="linearGradient33717"><stop
         style="stop-color:#bcbdb2;stop-opacity:1;"
         offset="0"
         id="stop33713" /><stop
         style="stop-color:#9e998a;stop-opacity:1;"
         offset="1"
         id="stop33715" /></linearGradient><linearGradient
       inkscape:collect="always"
       id="linearGradient28493"><stop
         style="stop-color:#ccd0c8;stop-opacity:1;"
         offset="0.74610221"
         id="stop28489" /><stop
         style="stop-color:#5d3535;stop-opacity:1;"
         offset="1"
         id="stop28491" /></linearGradient><linearGradient
       inkscape:collect="always"
       id="linearGradient25863"><stop
         style="stop-color:#2e1b1b;stop-opacity:1;"
         offset="0"
         id="stop25859" /><stop
         style="stop-color:#5d3535;stop-opacity:1;"
         offset="1"
         id="stop25861" /></linearGradient><linearGradient
       inkscape:collect="always"
       id="linearGradient17295"><stop
         style="stop-color:#ccd0c8;stop-opacity:1;"
         offset="0"
         id="stop17291" /><stop
         style="stop-color:#9e998a;stop-opacity:1;"
         offset="1"
         id="stop17293" /></linearGradient><linearGradient
       inkscape:collect="always"
       id="linearGradient1719"><stop
         style="stop-color:#20211c;stop-opacity:1;"
         offset="0"
         id="stop1715" /><stop
         style="stop-color:#d0cabc;stop-opacity:1;"
         offset="1"
         id="stop1717" /></linearGradient><linearGradient
       inkscape:collect="always"
       id="linearGradient1619"><stop
         style="stop-color:#ffffff;stop-opacity:1;"
         offset="0"
         id="stop1615" /><stop
         style="stop-color:#000000;stop-opacity:1;"
         offset="0.21087727"
         id="stop1617" /></linearGradient><radialGradient
       inkscape:collect="always"
       xlink:href="#linearGradient1619"
       id="radialGradient1623"
       cx="129.01216"
       cy="69.464348"
       fx="129.01216"
       fy="69.464348"
       r="4.0845118"
       gradientUnits="userSpaceOnUse" /><radialGradient
       inkscape:collect="always"
       xlink:href="#linearGradient1619"
       id="radialGradient1627"
       gradientUnits="userSpaceOnUse"
       cx="113.22132"
       cy="69.414268"
       fx="113.22132"
       fy="69.414268"
       r="4.0845118" /><linearGradient
       inkscape:collect="always"
       xlink:href="#linearGradient1719"
       id="linearGradient1721"
       x1="119.77979"
       y1="68.466347"
       x2="119.77979"
       y2="73.482422"
       gradientUnits="userSpaceOnUse"
       gradientTransform="translate(0.15167437)" /><linearGradient
       inkscape:collect="always"
       xlink:href="#linearGradient17295"
       id="linearGradient17297"
       x1="-120.98613"
       y1="-80.79985"
       x2="-120.98613"
       y2="-109.81666"
       gradientUnits="userSpaceOnUse" /><linearGradient
       inkscape:collect="always"
       xlink:href="#linearGradient25863"
       id="linearGradient25865"
       x1="-119.22816"
       y1="-87.8283"
       x2="-119.22816"
       y2="-86.182701"
       gradientUnits="userSpaceOnUse"
       gradientTransform="translate(0.00115586)" /><linearGradient
       inkscape:collect="always"
       xlink:href="#linearGradient28493"
       id="linearGradient28495"
       x1="-121.067"
       y1="-88.246651"
       x2="-121.067"
       y2="-88.890945"
       gradientUnits="userSpaceOnUse"
       gradientTransform="translate(0.0463296,-0.19753898)" /><linearGradient
       inkscape:collect="always"
       xlink:href="#linearGradient28493"
       id="linearGradient29501"
       gradientUnits="userSpaceOnUse"
       gradientTransform="translate(2.9061096,-0.19753898)"
       x1="-121.067"
       y1="-88.246651"
       x2="-121.067"
       y2="-88.890945" /><linearGradient
       inkscape:collect="always"
       xlink:href="#linearGradient28493"
       id="linearGradient29505"
       gradientUnits="userSpaceOnUse"
       gradientTransform="matrix(1,0,0,0.46833232,0.65543419,-47.386866)"
       x1="-121.067"
       y1="-88.246651"
       x2="-121.067"
       y2="-88.890945" /><linearGradient
       inkscape:collect="always"
       xlink:href="#linearGradient28493"
       id="linearGradient29509"
       gradientUnits="userSpaceOnUse"
       gradientTransform="matrix(1,0,0,0.46833232,1.1429011,-47.303493)"
       x1="-121.067"
       y1="-88.246651"
       x2="-121.067"
       y2="-88.890945" /><linearGradient
       inkscape:collect="always"
       xlink:href="#linearGradient28493"
       id="linearGradient29513"
       gradientUnits="userSpaceOnUse"
       gradientTransform="matrix(1,0,0,0.46833232,1.6303641,-47.303491)"
       x1="-121.067"
       y1="-88.246651"
       x2="-121.067"
       y2="-88.890945" /><linearGradient
       inkscape:collect="always"
       xlink:href="#linearGradient28493"
       id="linearGradient29517"
       gradientUnits="userSpaceOnUse"
       gradientTransform="matrix(1,0,0,0.46833232,2.117831,-47.386862)"
       x1="-121.067"
       y1="-88.246651"
       x2="-121.067"
       y2="-88.890945" /><clipPath
       clipPathUnits="userSpaceOnUse"
       id="clipPath33644"><path
         id="path33646"
         style="fill:#20211c;stroke-width:0.800002;stroke-linecap:round;paint-order:stroke fill markers;stop-color:#000000"
         d="m 103.03675,117.21855 c 0,-19.215812 0.66213,-36.971952 6.60689,-46.579856 5.94476,-9.607897 13.26901,-9.607897 19.21377,2e-6 5.94476,9.607902 6.60689,27.364042 6.60689,46.579854 h -16.21377 z"
         sodipodi:nodetypes="cssccc" /></clipPath><clipPath
       clipPathUnits="userSpaceOnUse"
       id="clipPath33653"><path
         id="path33655"
         style="fill:#20211c;stroke-width:0.800002;stroke-linecap:round;paint-order:stroke fill markers;stop-color:#000000"
         d="m 103.03675,117.21855 c 0,-19.215812 0.66213,-36.971952 6.60689,-46.579856 5.94476,-9.607897 13.26901,-9.607897 19.21377,2e-6 5.94476,9.607902 6.60689,27.364042 6.60689,46.579854 h -16.21377 z"
         sodipodi:nodetypes="cssccc" /></clipPath><linearGradient
       inkscape:collect="always"
       xlink:href="#linearGradient33717"
       id="linearGradient33719"
       x1="119.13657"
       y1="91.604347"
       x2="119.13657"
       y2="93.758057"
       gradientUnits="userSpaceOnUse"
       gradientTransform="matrix(1.1912049,0,0,1,-22.746747,0)" /><radialGradient
       inkscape:collect="always"
       xlink:href="#linearGradient46163"
       id="radialGradient46165"
       cx="156.37045"
       cy="-21.46302"
       fx="156.37045"
       fy="-21.46302"
       r="19.222658"
       gradientTransform="matrix(0.80233519,-0.80233519,0.70705154,0.70705154,39.62671,121.78418)"
       gradientUnits="userSpaceOnUse" /></defs><g
     inkscape:label="Layer 1"
     inkscape:groupmode="layer"
     id="layer1"
     transform="translate(-92.543198,-61.176178)"><rect
       style="fill:#879c97;fill-opacity:1;stroke-width:0.799999;stroke-linecap:round;paint-order:stroke fill markers;stop-color:#000000"
       id="rect31977"
       width="55.884354"
       height="56.042374"
       x="92.543198"
       y="61.176178" /><path
       id="path358"
       style="opacity:0.218412;fill:#20211c;fill-opacity:1;stroke-width:0.800002;stroke-linecap:round;paint-order:stroke fill markers;stop-color:#000000"
       d="m 120.25062,64.43289 c -2.28534,0 -4.57068,1.140412 -6.74326,3.420464 -0.32363,-0.08109 -0.65597,-0.122219 -0.9896,-0.122475 -2.25581,10e-7 -4.08451,1.828695 -4.08451,4.084505 0.001,0.878816 0.28563,1.733838 0.81132,2.438092 -1.7933,3.860063 -2.97887,8.662625 -3.75739,14.116451 -4.75078,4.83041 -8.546427,9.755349 -10.053134,13.044163 -1.566465,3.42054 -0.424335,4.56267 2.996202,2.99621 1.620732,-0.74301 3.669352,-2.05696 5.954152,-3.8189 -0.28056,5.58708 -0.34778,10.53311 -0.34778,16.62715 l 16.214,1e-5 16.21348,-1e-5 c 0,-6.09422 -0.0672,-11.04043 -0.34778,-16.62766 2.28467,1.76196 4.33328,3.07608 5.95416,3.8194 3.42112,1.56694 4.56347,0.42478 2.99671,-2.9962 -1.50671,-3.288813 -5.30235,-8.21375 -10.05313,-13.044161 -0.77868,-5.455013 -1.96447,-10.258549 -3.75843,-14.119038 0.52424,-0.703866 0.80782,-1.557869 0.80874,-2.435509 0,-2.255809 -1.8287,-4.084502 -4.08451,-4.084503 -0.33212,9.7e-4 -0.66288,0.04244 -0.98495,0.123502 -2.17287,-2.280742 -4.4586,-3.421496 -6.74429,-3.421491 z"
       sodipodi:nodetypes="scccccccccccccccccccs" /><path
       style="fill:#20211c;fill-opacity:1;stroke-width:0.800002;stroke-linecap:round;paint-order:stroke fill markers;stop-color:#000000"
       id="path38207"
       sodipodi:type="arc"
       sodipodi:cx="139.89716"
       sodipodi:cy="-12.869282"
       sodipodi:rx="4.2374825"
       sodipodi:ry="19.742817"
       sodipodi:start="0"
       sodipodi:end="3.1415927"
       sodipodi:arc-type="slice"
       d="m 144.13464,-12.869282 a 4.2374825,19.742817 0 0 1 -2.11874,17.0977814 4.2374825,19.742817 0 0 1 -4.23749,-5e-7 4.2374825,19.742817 0 0 1 -2.11874,-17.0977809 h 4.23749 z"
       transform="rotate(45)" /><path
       style="fill:#20211c;fill-opacity:1;stroke-width:0.800002;stroke-linecap:round;paint-order:stroke fill markers;stop-color:#000000"
       id="path38451"
       sodipodi:type="arc"
       sodipodi:cx="-28.748558"
       sodipodi:cy="155.77643"
       sodipodi:rx="4.2374825"
       sodipodi:ry="19.742817"
       sodipodi:start="0"
       sodipodi:end="3.1415927"
       sodipodi:arc-type="slice"
       d="m -24.511075,155.77643 a 4.2374825,19.742817 0 0 1 -2.118742,17.09778 4.2374825,19.742817 0 0 1 -4.237482,0 4.2374825,19.742817 0 0 1 -2.118742,-17.09778 h 4.237483 z"
       transform="matrix(-0.70710678,0.70710678,0.70710678,0.70710678,0,0)" /><path
       id="path29577"
       style="fill:#20211c;stroke-width:0.8;stroke-linecap:round;paint-order:stroke fill markers;stop-color:#000000"
       transform="scale(-1)"
       d="m -103.03675,-117.21855 c 0,19.215811 -0.66213,36.971952 -6.60689,46.579856 -5.94476,9.607898 -13.26901,9.607897 -19.21377,-2e-6 -5.94476,-9.607903 -6.60689,-27.364043 -6.60689,-46.579854 h 16.21377 z"
       sodipodi:nodetypes="cssccc" /><g
       inkscape:groupmode="maskhelper"
       id="g33648"
       clip-path="url(#clipPath33653)"><g
         id="g12253"><ellipse
           style="fill:#6a4e24;fill-opacity:1;stroke-width:0.799999;stroke-linecap:round;paint-order:stroke fill markers;stop-color:#000000"
           id="path1723"
           cx="74.557411"
           cy="127.74704"
           rx="5.0265245"
           ry="7.6559248"
           transform="rotate(-30)" /></g></g><g
       inkscape:groupmode="maskhelper"
       id="g33639"
       clip-path="url(#clipPath33644)"><g
         id="g12249"><ellipse
           style="fill:#6a4e24;fill-opacity:1;stroke-width:0.799999;stroke-linecap:round;paint-order:stroke fill markers;stop-color:#000000"
           id="ellipse4978"
           cx="-131.99055"
           cy="8.4965124"
           rx="5.0265245"
           ry="7.6559248"
           transform="matrix(-0.8660254,-0.5,-0.5,0.8660254,0,0)" /></g></g><g
       id="g40373"
       inkscape:label="eyes"><circle
         style="fill:url(#radialGradient1623);fill-opacity:1;stroke-width:0.799999;stroke-linecap:round;paint-order:stroke fill markers;stop-color:#000000"
         id="circle1281"
         cx="126.97997"
         cy="70.815613"
         r="4.0845118" /><circle
         style="fill:url(#radialGradient1627);fill-opacity:1;stroke-width:0.799999;stroke-linecap:round;paint-order:stroke fill markers;stop-color:#000000"
         id="circle1625"
         cx="111.51788"
         cy="70.815613"
         r="4.0845118" /></g><g
       id="g12257"
       transform="translate(-0.15167437)"><path
         id="rect1713"
         style="fill:url(#linearGradient1721);stroke-width:0.799999;stroke-linecap:round;paint-order:stroke fill markers;stop-color:#000000"
         d="m 116.15469,65.010706 c 1.57312,-0.700003 5.06962,-0.682854 6.49501,0 l -1,10.693925 h -4.49501 z"
         sodipodi:nodetypes="ccccc" /><path
         id="path5053"
         style="fill:url(#linearGradient17297);stroke-width:0.799999;stroke-linecap:round;paint-order:stroke fill markers;stop-color:#000000"
         transform="scale(-1)"
         d="m -109.93076,-117.21855 c 0,13.53528 -1.80525,31.257378 -4.73572,38.025021 -2.93047,6.767636 -6.54097,6.767636 -9.47144,-10e-7 -2.93047,-6.767643 -4.73572,-24.48974 -4.73572,-38.02502 h 9.47144 z"
         sodipodi:nodetypes="cssccc" /></g><g
       id="g40369"
       inkscape:label="mouth"><g
         id="g12265"
         transform="translate(-0.05066558)"><path
           style="fill:none;stroke:#000000;stroke-width:0.264583px;stroke-linecap:butt;stroke-linejoin:miter;stroke-opacity:1"
           d="m 120.58191,78.566719 c 0.14495,-0.303042 0.21136,-0.652828 0.50106,-0.869727 0.48074,0.295013 0.73295,0.148922 1.03728,0.103419 l -1.02919,-0.106426"
           id="path12259"
           sodipodi:nodetypes="ccc" /><path
           style="fill:none;stroke:#000000;stroke-width:0.264583px;stroke-linecap:butt;stroke-linejoin:miter;stroke-opacity:1"
           d="m 118.02047,78.566719 c -0.14495,-0.303042 -0.21136,-0.652828 -0.50106,-0.869727 -0.48074,0.295013 -0.73295,0.148922 -1.03728,0.103419 l 1.02919,-0.106426"
           id="path12261"
           sodipodi:nodetypes="ccc" /></g><path
         id="path12319"
         style="fill:#130e0b;fill-opacity:1;stroke-width:0.799999;stroke-linecap:round;paint-order:stroke fill markers;stop-color:#000000"
         d="m 115.2541,90.115412 c -1.04185,-1.999866 0.76193,-5.924942 1.99878,-7.464658 1.23685,-1.539714 2.76071,-1.539714 3.99756,0 1.23685,1.539716 3.03482,5.464506 1.99878,7.464658 -1.03603,2.000153 -1.71096,-0.918047 -3.99756,-0.918047 -2.28659,0 -2.95571,2.917914 -3.99756,0.918047 z"
         sodipodi:nodetypes="zsszzz" /><path
         style="fill:url(#linearGradient25865);fill-opacity:1;stroke-width:0.799999;stroke-linecap:round;paint-order:stroke fill markers;stop-color:#000000"
         id="path17384"
         sodipodi:type="arc"
         sodipodi:cx="-119.24939"
         sodipodi:cy="-88.617744"
         sodipodi:rx="1.1271182"
         sodipodi:ry="4.1351204"
         sodipodi:start="0"
         sodipodi:end="3.1415927"
         sodipodi:arc-type="slice"
         d="m -118.12227,-88.617744 a 1.1271182,4.1351204 0 0 1 -0.56356,3.581119 1.1271182,4.1351204 0 0 1 -1.12712,0 1.1271182,4.1351204 0 0 1 -0.56356,-3.581119 h 1.12712 z"
         transform="scale(-1)" /><path
         style="fill:#5d3535;fill-opacity:1;stroke-width:0.799999;stroke-linecap:round;paint-order:stroke fill markers;stop-color:#000000"
         d="m 123.53199,88.128471 c -0.0409,0.361037 -0.13127,0.694733 -0.28267,0.98702 -1.03602,2.000151 -1.71109,-0.91829 -3.99768,-0.91829 -2.28659,0 -2.95584,2.918155 -3.99769,0.91829 -0.15269,-0.293081 -0.24355,-0.627912 -0.28474,-0.990121 -0.0718,0.748783 -8.7e-4,1.44183 0.28474,1.99006 1.04185,1.999865 1.7111,-0.918291 3.99769,-0.918291 2.28659,0 2.96166,2.918442 3.99768,0.918291 0.28363,-0.547553 0.35417,-1.239351 0.28267,-1.986959 z"
         id="path21700" /><g
         id="g40352"
         inkscape:label="teeth"><path
           style="fill:url(#linearGradient28495);fill-opacity:1;stroke-width:0.8;stroke-linecap:round;paint-order:stroke fill markers;stop-color:#000000"
           id="path19362"
           sodipodi:type="arc"
           sodipodi:cx="-120.67928"
           sodipodi:cy="-89.300629"
           sodipodi:rx="0.19425303"
           sodipodi:ry="1.7128708"
           sodipodi:start="0"
           sodipodi:end="3.1415927"
           sodipodi:arc-type="slice"
           d="m -120.48503,-89.300629 a 0.19425303,1.7128708 0 0 1 -0.0971,1.48339 0.19425303,1.7128708 0 0 1 -0.19425,0 0.19425303,1.7128708 0 0 1 -0.0971,-1.48339 h 0.19426 z"
           transform="scale(-1)" /><path
           style="fill:url(#linearGradient29501);fill-opacity:1;stroke-width:0.8;stroke-linecap:round;paint-order:stroke fill markers;stop-color:#000000"
           id="path29499"
           sodipodi:type="arc"
           sodipodi:cx="-117.8195"
           sodipodi:cy="-89.300629"
           sodipodi:rx="0.19425303"
           sodipodi:ry="1.7128708"
           sodipodi:start="0"
           sodipodi:end="3.1415927"
           sodipodi:arc-type="slice"
           d="m -117.62525,-89.300629 a 0.19425303,1.7128708 0 0 1 -0.0971,1.48339 0.19425303,1.7128708 0 0 1 -0.19425,0 0.19425303,1.7128708 0 0 1 -0.0971,-1.48339 h 0.19426 z"
           transform="scale(-1)" /><g
           id="g29523"
           transform="translate(-0.08959198,-0.12378096)"><path
             style="fill:url(#linearGradient29505);fill-opacity:1;stroke-width:0.800003;stroke-linecap:round;paint-order:stroke fill markers;stop-color:#000000"
             id="path29503"
             sodipodi:type="arc"
             sodipodi:cx="-120.07018"
             sodipodi:cy="-89.116722"
             sodipodi:rx="0.19425303"
             sodipodi:ry="0.80219275"
             sodipodi:start="0"
             sodipodi:end="3.1415927"
             sodipodi:arc-type="slice"
             d="m -119.87593,-89.116722 a 0.19425303,0.80219275 0 0 1 -0.0971,0.694719 0.19425303,0.80219275 0 0 1 -0.19425,0 0.19425303,0.80219275 0 0 1 -0.0971,-0.694719 h 0.19426 z"
             transform="scale(-1)" /><path
             style="fill:url(#linearGradient29509);fill-opacity:1;stroke-width:0.800003;stroke-linecap:round;paint-order:stroke fill markers;stop-color:#000000"
             id="path29507"
             sodipodi:type="arc"
             sodipodi:cx="-119.58272"
             sodipodi:cy="-89.033348"
             sodipodi:rx="0.19425303"
             sodipodi:ry="0.80219275"
             sodipodi:start="0"
             sodipodi:end="3.1415927"
             sodipodi:arc-type="slice"
             d="m -119.38846,-89.033348 a 0.19425303,0.80219275 0 0 1 -0.0971,0.694719 0.19425303,0.80219275 0 0 1 -0.19425,0 0.19425303,0.80219275 0 0 1 -0.0971,-0.694719 h 0.19425 z"
             transform="scale(-1)" /><path
             style="fill:url(#linearGradient29513);fill-opacity:1;stroke-width:0.800003;stroke-linecap:round;paint-order:stroke fill markers;stop-color:#000000"
             id="path29511"
             sodipodi:type="arc"
             sodipodi:cx="-119.09525"
             sodipodi:cy="-89.033348"
             sodipodi:rx="0.19425303"
             sodipodi:ry="0.80219275"
             sodipodi:start="0"
             sodipodi:end="3.1415927"
             sodipodi:arc-type="slice"
             d="m -118.901,-89.033348 a 0.19425303,0.80219275 0 0 1 -0.0971,0.694719 0.19425303,0.80219275 0 0 1 -0.19425,0 0.19425303,0.80219275 0 0 1 -0.0971,-0.694719 h 0.19426 z"
             transform="scale(-1)" /><path
             style="fill:url(#linearGradient29517);fill-opacity:1;stroke-width:0.800003;stroke-linecap:round;paint-order:stroke fill markers;stop-color:#000000"
             id="path29515"
             sodipodi:type="arc"
             sodipodi:cx="-118.60779"
             sodipodi:cy="-89.116722"
             sodipodi:rx="0.19425303"
             sodipodi:ry="0.80219275"
             sodipodi:start="0"
             sodipodi:end="3.1415927"
             sodipodi:arc-type="slice"
             d="m -118.41354,-89.116722 a 0.19425303,0.80219275 0 0 1 -0.0971,0.694719 0.19425303,0.80219275 0 0 1 -0.19425,0 0.19425303,0.80219275 0 0 1 -0.0971,-0.694719 h 0.19425 z"
             transform="scale(-1)" /></g></g><path
         style="fill:url(#linearGradient33719);fill-opacity:1;stroke-width:0.799999;stroke-linecap:round;paint-order:stroke fill markers;stop-color:#000000"
         id="path33711"
         sodipodi:type="arc"
         sodipodi:cx="119.25053"
         sodipodi:cy="91.057243"
         sodipodi:rx="4.1809492"
         sodipodi:ry="3.1377015"
         sodipodi:start="0"
         sodipodi:end="3.1415927"
         sodipodi:arc-type="slice"
         d="m 123.43148,91.057243 a 4.1809492,3.1377015 0 0 1 -2.09048,2.71733 4.1809492,3.1377015 0 0 1 -4.18095,0 4.1809492,3.1377015 0 0 1 -2.09047,-2.71733 h 4.18095 z"
         inkscape:label="chin" /></g><path
       id="path40450"
       style="fill:url(#radialGradient46165);fill-opacity:1;stroke-width:0.800002;stroke-linecap:round;paint-order:stroke fill markers;stop-color:#000000"
       d="m 137.07388,-11.454796 a 19.742817,4.2374825 90 0 0 2.11863,17.0974195 19.742817,4.2374825 90 0 0 0.53459,1.2120569 19.742817,4.2374825 90 0 0 2.28855,-2.6261842 19.742817,4.2374825 90 0 0 2.1073,-15.6836582 h -2.81144 z m 20.11678,-20.116782 v 4.237266 2.811445 a 19.742817,4.2374825 0 0 0 15.68329,-2.10694 19.742817,4.2374825 0 0 0 2.62947,-2.288182 19.742817,4.2374825 0 0 0 -1.21498,-0.535322 19.742817,4.2374825 0 0 0 -17.09778,-2.118267 z"
       transform="rotate(45)" /></g></svg>
