<?xml version="1.0" encoding="UTF-8" standalone="no"?>
<!-- Created with Inkscape (http://www.inkscape.org/) -->

<svg
   width="107.6046mm"
   height="149.34273mm"
   viewBox="0 0 107.6046 149.34273"
   version="1.1"
   id="svg5"
   inkscape:version="1.2.2 (b0a8486541, 2022-12-01)"
   xml:space="preserve"
   sodipodi:docname="msh_liser_porg_room_518.svg"
   xmlns:inkscape="http://www.inkscape.org/namespaces/inkscape"
   xmlns:sodipodi="http://sodipodi.sourceforge.net/DTD/sodipodi-0.dtd"
   xmlns="http://www.w3.org/2000/svg"
   xmlns:svg="http://www.w3.org/2000/svg"><sodipodi:namedview
     id="namedview7"
     pagecolor="#292929"
     bordercolor="#666666"
     borderopacity="1.0"
     inkscape:pageshadow="2"
     inkscape:pageopacity="0"
     inkscape:pagecheckerboard="0"
     inkscape:document-units="mm"
     showgrid="false"
     inkscape:showpageshadow="2"
     inkscape:deskcolor="#292929"
     inkscape:zoom="0.86464426"
     inkscape:cx="279.88389"
     inkscape:cy="272.36635"
     inkscape:window-width="1850"
     inkscape:window-height="1016"
     inkscape:window-x="0"
     inkscape:window-y="0"
     inkscape:window-maximized="1"
     inkscape:current-layer="g3162" /><defs
     id="defs2"><clipPath
       clipPathUnits="userSpaceOnUse"
       id="clipPath3181"><rect
         style="opacity:1;fill:#ffffff;fill-opacity:1;stroke:none;stroke-width:5.00002;stroke-linecap:round;stroke-linejoin:bevel;stroke-dasharray:none;stroke-opacity:1;paint-order:normal;stop-color:#000000"
         id="rect3183"
         width="107.6046"
         height="149.34273"
         x="56.571903"
         y="59.111572" /></clipPath></defs><g
     inkscape:label="Layer 1"
     inkscape:groupmode="layer"
     id="layer1"
     transform="translate(-56.571903,-59.111572)"><g
       inkscape:groupmode="maskhelper"
       id="g3162"
       clip-path="url(#clipPath3181)"><rect
         style="opacity:1;fill:#ffffff;fill-opacity:1;stroke:none;stroke-width:5;stroke-linecap:round;stroke-linejoin:bevel;stroke-dasharray:none;stroke-opacity:1;paint-order:normal;stop-color:#000000"
         id="rect2060"
         width="107.6046"
         height="149.34273"
         x="56.571903"
         y="59.111572" /><g
         id="g3120"
         transform="translate(0.3437332,0.74154552)"><path
           id="path970"
           style="fill:#b3b3b3;stroke:#000000;stroke-width:0.6;stroke-linecap:butt;stroke-linejoin:miter;stroke-dasharray:none;stroke-opacity:1"
           d="M 105.60234,63.231283 65.644055,168.51219 117.25589,187.79836 156.76666,82.560852 Z m -5.12617,62.376827 24.58058,9.66336 -6.14823,16.85214 -24.940734,-10.08834 z"
           sodipodi:nodetypes="cccccccccc" /><g
           id="g1"
           inkscape:label="green"><rect
             style="opacity:1;fill:#bcd35f;fill-opacity:1;stroke:#000000;stroke-width:0.5;stroke-linecap:round;stroke-dasharray:none;stroke-opacity:1;paint-order:normal;stop-color:#000000"
             id="rect1036"
             width="18.271442"
             height="21.061745"
             x="99.738983"
             y="56.708366"
             transform="rotate(20.761107)" /><rect
             style="opacity:1;fill:#bcd35f;fill-opacity:1;stroke:#000000;stroke-width:0.5;stroke-linecap:round;stroke-dasharray:none;stroke-opacity:1;paint-order:normal;stop-color:#000000"
             id="rect1090"
             width="18.271442"
             height="21.061745"
             x="100.32084"
             y="103.5734"
             transform="rotate(20.761107)" /><rect
             style="opacity:1;fill:#bcd35f;fill-opacity:1;stroke:#000000;stroke-width:0.5;stroke-linecap:round;stroke-dasharray:none;stroke-opacity:1;paint-order:normal;stop-color:#000000"
             id="rect1092"
             width="18.271442"
             height="21.061745"
             x="100.40563"
             y="15.314067"
             transform="rotate(20.761107)" /></g><path
           style="display:inline;fill:none;stroke:#666666;stroke-width:5;stroke-linecap:butt;stroke-linejoin:miter;stroke-dasharray:none;stroke-opacity:1"
           d="m 36.238111,172.28658 69.554679,29.4024 c 13.75119,5.10104 21.11311,-8.74702 27.27929,-19.86231 6.04763,-10.90159 56.14126,-138.142801 56.14126,-138.142801 l 11.81606,5.904434 -50.96365,138.595927 c -3.32686,6.95062 -14.87843,35.9032 -52.490712,19.59017 C 59.948803,191.45532 33.479843,180.71954 33.479843,180.71954"
           id="path1910"
           sodipodi:nodetypes="ccscccsc"
           inkscape:label="roads" /><path
           id="path2950"
           style="display:inline;fill:#e6e6e6;stroke:#000000;stroke-width:0.264583px;stroke-linecap:butt;stroke-linejoin:miter;stroke-opacity:1"
           d="m 137.39198,133.83242 -10.41956,-3.84574 -1.91567,5.28479 10.28606,3.86065 8.10967,-21.60022 z m 4.69399,-41.379748 -25.52684,-10.109583 -13.62602,34.236581 26.45754,10.13165 4.70816,-12.89415 z m -24.17612,-7.597202 21.61091,8.609045 -5.33052,13.720795 -21.5845,-8.886214 z"
           sodipodi:nodetypes="ccccccccccccccccc" /><g
           id="g318"
           transform="matrix(1.7949358,0,0,1.8044502,-86.767676,-26.921806)"
           style="stroke-width:0.555652"><path
             style="display:inline;fill:#44aa00;stroke:#000000;stroke-width:0.147016px;stroke-linecap:butt;stroke-linejoin:miter;stroke-opacity:1"
             d="m 104.38825,66.661053 5.58264,2.167305 1.33836,-3.36433 -5.73595,-2.1501 z"
             id="path2166" /><text
             xml:space="preserve"
             style="font-style:normal;font-variant:normal;font-weight:normal;font-stretch:normal;font-size:2.95384px;line-height:1.25;font-family:'Helvetica Compressed';-inkscape-font-specification:'Helvetica Compressed';display:none;stroke-width:0.147016"
             x="120.98069"
             y="26.765757"
             id="text2222"
             transform="rotate(19.731105)"><tspan
               sodipodi:role="line"
               id="tspan2220"
               style="font-style:normal;font-variant:normal;font-weight:normal;font-stretch:normal;font-family:'Helvetica Compressed';-inkscape-font-specification:'Helvetica Compressed';stroke-width:0.147016"
               x="0"
               y="0">PORG</tspan></text><g
             aria-label="PORG"
             transform="rotate(19.731105)"
             id="text321"
             style="font-size:2.95384px;line-height:1.25;font-family:'Helvetica Compressed';-inkscape-font-specification:'Helvetica Compressed';display:inline;stroke-width:0.147016"><path
               d="m 121.53601,24.963914 h 0.0768 c 0.17132,0 0.18314,0.09748 0.18314,0.345599 0,0.248123 -0.0118,0.342646 -0.18314,0.342646 h -0.0768 z m 0,1.801843 v -0.812306 h 0.18019 c 0.28947,0 0.57009,-0.138831 0.57009,-0.454892 V 25.11456 c 0,-0.363322 -0.25108,-0.451937 -0.64099,-0.451937 h -0.59963 v 2.103134 z"
               id="path323" /><path
               d="m 122.9066,25.123422 c 0,-0.08566 0.0266,-0.165415 0.12996,-0.165415 0.10339,0 0.12997,0.07975 0.12997,0.165415 v 1.181536 c 0,0.08566 -0.0266,0.165415 -0.12997,0.165415 -0.10338,0 -0.12996,-0.07975 -0.12996,-0.165415 z m 0.75027,0.112245 c 0,-0.481475 -0.29538,-0.614398 -0.62031,-0.614398 -0.32492,0 -0.6203,0.132923 -0.6203,0.614398 v 0.957045 c 0,0.481476 0.29538,0.614398 0.6203,0.614398 0.32493,0 0.62031,-0.132922 0.62031,-0.614398 z"
               id="path325" /><path
               d="m 124.27127,26.765757 v -0.959998 h 0.0798 c 0.0886,0 0.17723,0.07385 0.17723,0.221538 v 0.446029 c 0,0.08271 0.0118,0.206769 0.0709,0.292431 h 0.49329 c -0.0591,-0.08566 -0.0738,-0.209723 -0.0738,-0.292431 v -0.440122 c 0,-0.301291 -0.13883,-0.389907 -0.37513,-0.395814 v -0.0059 c 0.26584,-0.04431 0.37513,-0.21563 0.37513,-0.478522 0,-0.443076 -0.27766,-0.490337 -0.74436,-0.490337 h -0.4933 v 2.103134 z m 0,-1.801843 c 0.22449,0 0.25699,0.07385 0.25699,0.2688 0,0.197907 -0.0354,0.271753 -0.25699,0.271753 z"
               id="path327" /><path
               d="m 126.11152,26.765757 h 0.28652 v -1.060429 h -0.67643 v 0.319015 h 0.18609 v 0.280615 c 0,0.08566 -0.0266,0.165415 -0.12997,0.165415 -0.10634,0 -0.12997,-0.07975 -0.12997,-0.165415 v -1.181536 c 0,-0.08566 0.0266,-0.165415 0.12997,-0.165415 0.10339,0 0.12997,0.07975 0.12997,0.165415 v 0.29243 h 0.49034 l 0.003,-0.221538 c -0.006,-0.413538 -0.22744,-0.573045 -0.62326,-0.573045 -0.32492,0 -0.6203,0.132923 -0.6203,0.614398 v 0.957045 c 0,0.481476 0.18018,0.614398 0.50215,0.614398 0.0709,0 0.15064,-0.0059 0.22449,-0.02954 0.0768,-0.02068 0.14769,-0.05908 0.20086,-0.118154 z"
               id="path329" /></g></g><g
           id="g323"
           style="display:none"
           inkscape:label="text"><text
             xml:space="preserve"
             style="font-style:normal;font-variant:normal;font-weight:normal;font-stretch:normal;font-size:7.05556px;line-height:1.25;font-family:'Helvetica Compressed';-inkscape-font-specification:'Helvetica Compressed';text-align:center;text-anchor:middle;stroke-width:0.264583"
             x="68.216888"
             y="69.103958"
             id="text3242"><tspan
               sodipodi:role="line"
               id="tspan3240"
               style="font-style:normal;font-variant:normal;font-weight:normal;font-stretch:normal;font-family:'Helvetica Compressed';-inkscape-font-specification:'Helvetica Compressed';text-align:center;text-anchor:middle;stroke-width:0.264583"
               x="68.216888"
               y="69.103958">North</tspan><tspan
               sodipodi:role="line"
               style="font-style:normal;font-variant:normal;font-weight:normal;font-stretch:normal;font-family:'Helvetica Compressed';-inkscape-font-specification:'Helvetica Compressed';text-align:center;text-anchor:middle;stroke-width:0.264583"
               x="68.216888"
               y="77.923409"
               id="tspan3244">is up</tspan></text><text
             xml:space="preserve"
             style="font-style:normal;font-variant:normal;font-weight:normal;font-stretch:normal;font-size:7.05556px;line-height:1.25;font-family:'Helvetica Compressed';-inkscape-font-specification:'Helvetica Compressed';text-align:center;text-anchor:middle;stroke-width:0.264583"
             x="-96.828705"
             y="202.11885"
             id="text3250"
             transform="rotate(-68.281632)"><tspan
               sodipodi:role="line"
               style="font-style:normal;font-variant:normal;font-weight:normal;font-stretch:normal;font-family:'Helvetica Compressed';-inkscape-font-specification:'Helvetica Compressed';text-align:center;text-anchor:middle;stroke-width:0.264583"
               x="-96.828705"
               y="202.11885"
               id="tspan3248">Nothing is to scale</tspan></text><text
             xml:space="preserve"
             style="font-style:normal;font-variant:normal;font-weight:normal;font-stretch:normal;font-size:7.05556px;line-height:1.25;font-family:'Helvetica Compressed';-inkscape-font-specification:'Helvetica Compressed';text-align:center;text-anchor:middle;stroke-width:0.264583"
             x="153.09357"
             y="140.73882"
             id="text3256"
             transform="rotate(22.942717)"><tspan
               sodipodi:role="line"
               style="font-style:normal;font-variant:normal;font-weight:normal;font-stretch:normal;font-family:'Helvetica Compressed';-inkscape-font-specification:'Helvetica Compressed';text-align:center;text-anchor:middle;stroke-width:0.264583"
               x="153.09357"
               y="140.73882"
               id="tspan3254">This map is a lie</tspan></text></g><g
           id="g339"
           inkscape:label="shape_text"><path
             id="path341"
             style="font-size:7.05556px;line-height:1.25;font-family:'Helvetica Compressed';-inkscape-font-specification:'Helvetica Compressed';text-align:center;text-anchor:middle;stroke-width:0.264583"
             d="m 61.012976,64.080261 v 5.023466 h 0.917256 V 64.90605 h 0.01447 l 0.867647,4.197677 H 64.3151 v -5.023466 h -0.917257 v 3.655074 h -0.01395 l -0.747758,-3.655074 z m 11.670088,0 v 5.023466 h 1.114661 v -2.730066 c 0,-0.218722 0.0073,-0.437699 0.233061,-0.437699 0.225776,0 0.232544,0.218977 0.232544,0.437699 v 2.730066 h 1.115177 v -3.125391 c 0,-0.58561 -0.211736,-0.959631 -0.77618,-0.959631 -0.409223,0 -0.677244,0.197576 -0.790133,0.550354 h -0.01447 v -1.488798 z m -1.813326,0.260966 v 0.727087 h -0.374137 v 0.733806 h 0.374137 v 2.462382 c 0,0.529166 0.134043,0.839225 0.691431,0.839225 h 0.910022 V 68.370438 H 72.2526 c -0.261055,0 -0.268201,-0.127014 -0.268201,-0.366902 V 65.80212 h 0.486792 v -0.733806 h -0.486792 v -0.727087 z m -4.938716,0.677478 c -0.867833,0 -1.347722,0.409126 -1.347722,1.135848 v 1.926497 c 0,0.747889 0.635111,1.072286 1.347722,1.072286 0.712611,0 1.347721,-0.324397 1.347721,-1.072286 v -1.926497 c 0,-0.726722 -0.479888,-1.135848 -1.347721,-1.135848 z m 3.59823,0 c -0.409222,0 -0.656436,0.225998 -0.804602,0.578776 h -0.02119 l 5.17e-4,-0.529167 H 67.5888 v 4.035413 h 1.115177 v -2.836003 c 0,-0.162277 0.0491,-0.331762 0.232544,-0.331762 0.183445,0 0.233061,0.169485 0.233061,0.331762 v 0.980819 h 1.11466 v -1.439705 c 0,-0.416278 -0.190548,-0.790133 -0.754992,-0.790133 z m -3.59823,0.733805 c 0.176388,0 0.232544,0.133988 0.232544,0.282154 v 2.102714 c 0,0.148167 -0.05615,0.282153 -0.232544,0.282153 -0.176389,0 -0.233061,-0.133986 -0.233061,-0.282153 v -2.102714 c 0,-0.148166 0.05667,-0.282154 0.233061,-0.282154 z m -3.59823,7.147368 v 0.712618 h 1.11466 v -0.712618 z m 2.7373,0.938444 c -0.733777,0 -1.305346,0.317562 -1.305346,1.121895 0,1.312333 1.580782,1.016035 1.580782,1.97559 0,0.169333 -0.05667,0.303341 -0.233061,0.303341 -0.176389,0 -0.233061,-0.134008 -0.233061,-0.303341 v -0.607198 h -1.11466 v 0.642338 c 0,0.726721 0.550361,1.002006 1.262972,1.002006 0.931333,0 1.411283,-0.423319 1.411283,-1.220597 0,-1.312333 -1.559595,-1.185444 -1.559595,-1.876888 0,-0.169333 0.05667,-0.303341 0.233061,-0.303341 0.176389,0 0.233061,0.134008 0.233061,0.303341 v 0.437182 h 1.11466 v -0.465604 c 0,-0.677334 -0.54343,-1.008724 -1.390096,-1.008724 z m 8.240841,0 c -0.409222,0 -0.7125,0.154925 -0.768945,0.578259 h -0.01395 v -0.529167 h -1.115177 v 4.939234 h 1.115177 v -1.432471 h 0.01395 c 0.09878,0.366889 0.38091,0.578776 0.790132,0.578776 0.564445,0 0.77618,-0.380993 0.77618,-0.874882 v -2.229838 c 0,-0.508001 -0.183534,-1.029911 -0.797367,-1.029911 z m -10.978141,0.04909 v 4.03593 h 1.11466 v -4.03593 z m 6.074564,0 v 3.161048 c 0,0.578555 0.254048,0.924491 0.754993,0.924491 0.437445,0 0.705487,-0.197576 0.81132,-0.550354 h 0.01395 v 0.500745 h 1.115177 v -4.03593 h -1.115177 v 2.80138 c 0,0.176389 -0.02811,0.366902 -0.239779,0.366902 -0.211666,0 -0.225826,-0.190513 -0.225826,-0.366902 v -2.80138 z m 4.353223,0.868164 c 0.134056,0 0.233061,0.09853 0.233061,0.274919 v 1.749764 c 0,0.176389 -0.09901,0.275435 -0.233061,0.275435 -0.134055,0 -0.232544,-0.09905 -0.232544,-0.275435 v -1.749764 c 0,-0.176389 0.09849,-0.274919 0.232544,-0.274919 z m 84.592771,67.117354 c -0.52356,0.003 -0.86421,0.41556 -1.07022,0.93276 -0.32114,0.80623 -0.11858,1.40333 0.55655,1.67225 l 1.78956,0.71262 c 0.6948,0.27675 1.2313,-0.19322 1.495,-0.85525 0.28981,-0.72757 0.2299,-1.35875 -0.47801,-1.64073 l -0.55035,-0.21962 -0.4129,1.03559 0.48524,0.19327 c 0.22285,0.0888 0.33968,0.19632 0.27441,0.36019 -0.0548,0.13765 -0.22363,0.16113 -0.44649,0.0724 l -0.76067,-0.30283 0.58497,-1.46812 -0.9834,-0.39171 c -0.17637,-0.0703 -0.33709,-0.10151 -0.48369,-0.10077 z m -0.20361,1.05161 c 0.0375,-0.001 0.079,0.007 0.12403,0.0248 l 0.51159,0.2036 -0.1726,0.43254 -0.51108,-0.20361 c -0.1442,-0.0574 -0.19438,-0.16068 -0.13694,-0.30489 0.0395,-0.0991 0.10256,-0.14939 0.185,-0.15245 z m -2.35438,1.08056 -0.41237,1.03559 4.6669,1.85881 0.41237,-1.0356 z m 0.93431,1.99781 c -0.52358,0.003 -0.89374,0.43603 -1.0914,0.93224 -0.24803,0.6227 -0.22979,1.35857 0.524,1.65882 l 0.34726,0.13849 0.41238,-1.0356 -0.41289,-0.16433 c -0.15075,-0.06 -0.25702,-0.15566 -0.18914,-0.32608 0.0679,-0.17042 0.21099,-0.1665 0.36174,-0.10645 0.6948,0.27675 -0.008,1.69764 0.97513,2.08928 l 0.55707,0.22221 c 0.49161,0.19582 0.87664,0.0301 1.05678,-0.4222 0.16448,-0.41295 0.0238,-0.68928 -0.19533,-0.92087 l 0.005,-0.0129 0.43925,0.17466 0.41237,-1.03559 -2.77244,-1.10433 c -0.15311,-0.061 -0.29648,-0.0882 -0.42995,-0.0873 z m 0.89556,1.47278 0.64905,0.25838 c 0.3343,0.13316 0.46805,0.21674 0.38189,0.43305 -0.0392,0.0983 -0.14128,0.16434 -0.27233,0.11214 l -0.40618,-0.16175 c -0.29496,-0.11749 -0.28916,-0.38119 -0.35243,-0.64182 z m -2.02882,1.3193 c -0.52366,0.003 -0.86475,0.41663 -1.0728,0.93896 -0.31331,0.78656 -0.0637,1.41753 0.55242,1.66295 l 1.75028,0.69711 c 0.72102,0.28719 1.23033,-0.057 1.53841,-0.83044 0.29242,-0.73413 0.23248,-1.36547 -0.47543,-1.64744 l -0.55087,-0.21911 -0.41237,1.03559 0.58342,0.23255 c 0.13766,0.0548 0.2415,0.15652 0.17622,0.32039 -0.0653,0.16387 -0.21065,0.16697 -0.3483,0.11214 l -1.95337,-0.77825 c -0.13764,-0.0548 -0.24149,-0.15704 -0.17622,-0.32091 0.0653,-0.16387 0.21065,-0.16644 0.3483,-0.11162 l 0.42633,0.1695 0.41238,-1.0356 -0.31471,-0.12505 c -0.17636,-0.0702 -0.33707,-0.10159 -0.48369,-0.10077 z m -1.14153,2.76985 c -0.44771,0.0119 -0.81201,0.37976 -1.05678,0.99426 -0.27153,0.68169 -0.18812,1.32965 0.55913,1.62729 1.21917,0.48563 1.5291,-1.09199 2.42053,-0.73691 0.15732,0.0627 0.26061,0.16481 0.19534,0.32867 -0.0653,0.16386 -0.21062,0.16652 -0.36794,0.10386 l -0.56379,-0.22427 -0.41238,1.03559 0.59635,0.2372 c 0.67514,0.26892 1.13466,-0.14051 1.39836,-0.80254 0.34464,-0.86521 0.12884,-1.46765 -0.61185,-1.76268 -1.21918,-0.48563 -1.67843,1.01034 -2.32079,0.75448 -0.15731,-0.0627 -0.2606,-0.16478 -0.19533,-0.32866 0.0653,-0.16386 0.21062,-0.16653 0.36793,-0.10387 l 0.40618,0.16174 0.41289,-1.03559 -0.43304,-0.1726 c -0.13765,-0.0548 -0.26945,-0.0793 -0.39481,-0.076 z m -1.68724,4.33927 c -0.45673,0.007 -0.83091,0.32398 -1.07177,0.92863 -0.32114,0.80623 -0.11858,1.40333 0.55656,1.67225 l 1.78955,0.71262 c 0.6948,0.27675 1.2313,-0.19322 1.495,-0.85525 0.26369,-0.66202 0.19716,-1.37173 -0.49764,-1.64848 l -1.78956,-0.71313 c -0.16878,-0.0672 -0.32989,-0.099 -0.48214,-0.0966 z m -0.19533,1.05627 c 0.0492,-10e-4 0.10186,0.0115 0.15347,0.032 l 1.95337,0.77773 c 0.13765,0.0548 0.2415,0.15704 0.17622,0.32091 -0.0653,0.16387 -0.21065,0.16645 -0.3483,0.11162 l -1.95337,-0.77773 c -0.13764,-0.0548 -0.24148,-0.15704 -0.17621,-0.32091 0.0408,-0.10242 0.11287,-0.14181 0.19482,-0.14366 z m -1.40767,1.33894 -0.17983,0.45216 -0.67542,-0.26871 -0.41237,1.03559 0.67541,0.26924 -0.13849,0.34726 0.68161,0.2713 0.13849,-0.34726 2.2872,0.91105 c 0.49161,0.19582 0.82985,0.18606 1.03611,-0.33176 l 0.33693,-0.84542 -0.68161,-0.27131 -0.0811,0.20309 c -0.0966,0.24252 -0.21743,0.20194 -0.44029,0.11317 l -2.04483,-0.81442 0.18035,-0.45217 z m -0.89142,3.83129 c -0.46005,-0.002 -0.83398,0.36745 -1.08365,0.99425 -0.27153,0.68169 -0.18811,1.33017 0.55914,1.62781 1.21916,0.48562 1.52856,-1.09199 2.42,-0.73691 0.15732,0.0627 0.26113,0.1648 0.19586,0.32867 -0.0653,0.16387 -0.21062,0.16652 -0.36794,0.10386 l -0.56379,-0.22479 -0.41238,1.0356 0.59635,0.23771 c 0.67513,0.26892 1.13415,-0.14052 1.39785,-0.80254 0.34464,-0.86521 0.12935,-1.46766 -0.61134,-1.76268 -1.21917,-0.48563 -1.67844,1.01034 -2.32078,0.75448 -0.15731,-0.0627 -0.26113,-0.16479 -0.19586,-0.32866 0.0653,-0.16387 0.21063,-0.16705 0.36794,-0.10439 l 0.40669,0.16226 0.41238,-1.03559 -0.43253,-0.1726 c -0.12782,-0.0509 -0.25067,-0.0759 -0.36794,-0.0765 z m -2.55591,2.1549 -0.41238,1.0356 0.66197,0.26355 0.41238,-1.0356 z m 0.91777,0.36536 -0.4129,1.03559 3.74965,1.49345 0.41237,-1.03559 z m -1.13585,2.8515 -0.41496,1.04232 0.48472,0.19275 -0.005,0.0134 c -0.39828,0.008 -0.67162,0.14223 -0.83871,0.56173 -0.14099,0.35395 -1.5e-4,0.7825 0.59634,1.02009 l 1.53376,0.61082 c 0.54404,0.2167 1.0274,0.1662 1.27021,-0.44339 0.13315,-0.33429 0.008,-0.68783 -0.29973,-0.84853 l 0.008,-0.0196 0.9307,0.37052 c 0.13109,0.0522 0.20843,0.14408 0.14314,0.30799 -0.0653,0.16387 -0.18414,0.17676 -0.31523,0.12454 l -0.24908,-0.0992 -0.41289,1.0356 0.36742,0.14624 c 0.39984,0.15927 0.96515,-0.1164 1.28106,-0.9095 0.18277,-0.45884 0.35181,-1.34084 -0.6904,-1.75597 z m 0.51625,1.43299 c 0.0523,0.001 0.10754,0.0156 0.15916,0.0362 l 1.07487,0.42788 c 0.13764,0.0548 0.26373,0.15826 0.19585,0.32867 -0.0679,0.17043 -0.23029,0.15869 -0.36793,0.10387 l -1.07487,-0.42789 c -0.13765,-0.0548 -0.26373,-0.15824 -0.19585,-0.32866 0.0424,-0.10651 0.1216,-0.14184 0.20877,-0.14004 z m -1.3224,1.57768 c -0.28921,0.008 -0.50983,0.15916 -0.63149,0.46457 -0.16187,0.40639 -0.0773,0.72871 0.21136,0.95757 l -0.005,0.0129 -0.4656,-0.18552 -0.41238,1.03611 3.74912,1.49345 0.41238,-1.03611 -2.60191,-1.03612 c -0.16387,-0.0653 -0.33051,-0.16196 -0.25218,-0.35863 0.0783,-0.19664 0.2604,-0.13967 0.42427,-0.0744 l 2.60242,1.03663 0.41238,-1.03559 -2.93677,-1.16944 c -0.18476,-0.0736 -0.35494,-0.10938 -0.50643,-0.10542 z m -2.33888,2.21485 -0.41238,1.0356 0.66198,0.26355 0.41289,-1.0356 z m 0.91778,0.36536 -0.41238,1.03559 3.74912,1.49345 0.4129,-1.0356 z m -0.19947,1.54925 c -0.29601,-0.003 -0.52646,0.14009 -0.66353,0.48421 -0.15143,0.38018 -0.0668,0.70251 0.21911,0.93793 l -0.005,0.0129 -1.38338,-0.55087 -0.41238,1.03559 4.6669,1.85932 0.41238,-1.03611 -2.5368,-1.01027 c -0.2032,-0.0809 -0.40344,-0.16848 -0.31987,-0.37828 0.0836,-0.20976 0.28927,-0.13523 0.49247,-0.0543 l 2.5368,1.01028 0.41238,-1.0356 -2.9037,-1.15652 c -0.18701,-0.0745 -0.36016,-0.11659 -0.51521,-0.11834 z m -74.685885,2.10169 -0.29714,0.70176 0.753959,0.31884 -1.661397,3.92483 1.078487,0.4563 1.661397,-3.92431 0.75396,0.31885 0.296622,-0.70177 z m 73.279765,0.38033 -0.18035,0.45217 -0.6749,-0.26872 -0.41237,1.0356 0.67489,0.26872 -0.13849,0.34778 0.68213,0.2713 0.13797,-0.34726 2.28772,0.91105 c 0.49161,0.19582 0.82985,0.18607 1.03611,-0.33176 l 0.33641,-0.84543 -0.68161,-0.2713 -0.0806,0.20309 c -0.0966,0.24253 -0.21743,0.20194 -0.44029,0.11317 l -2.04483,-0.81442 0.17983,-0.45217 z m -70.459782,0.81287 -1.95802,4.62608 1.026294,0.43511 1.064534,-2.51457 c 0.08526,-0.20142 0.177025,-0.40016 0.384989,-0.31213 0.20792,0.088 0.129187,0.29262 0.04393,0.49403 l -1.064534,2.51406 1.026811,0.4346 1.218013,-2.87838 c 0.228277,-0.53928 0.179251,-0.96594 -0.340548,-1.18597 -0.376848,-0.15952 -0.700584,-0.0819 -0.942061,0.19895 l -0.01292,-0.006 0.580326,-1.37098 z m 2.774507,1.17513 -0.278019,0.65629 1.026811,0.43408 0.277502,-0.65578 z m 67.402605,0.34933 c -0.45674,0.007 -0.83041,0.32398 -1.07125,0.92862 -0.32114,0.80624 -0.1186,1.40332 0.55655,1.67225 l 1.78956,0.71262 c 0.6948,0.27675 1.23131,-0.19322 1.495,-0.85524 0.2637,-0.66203 0.19715,-1.37172 -0.49765,-1.64848 l -1.78955,-0.71314 c -0.16879,-0.0672 -0.33042,-0.099 -0.48266,-0.0966 z m -67.787594,0.56017 -1.573548,3.71657 1.026811,0.4346 1.573031,-3.71657 z m 67.592774,0.49609 c 0.0492,-0.001 0.10186,0.011 0.15348,0.0315 l 1.95337,0.77824 c 0.13765,0.0548 0.2415,0.15701 0.17621,0.32092 -0.0653,0.16386 -0.21064,0.16645 -0.3483,0.11162 l -1.95336,-0.77773 c -0.13765,-0.0548 -0.24151,-0.157 -0.17622,-0.32091 0.0408,-0.10242 0.11288,-0.14182 0.19482,-0.14367 z m -65.727772,0.36949 c -0.407761,-0.003 -0.758524,0.19397 -0.964282,0.68006 -0.51156,1.20852 1.059276,1.55185 0.68523,2.43551 -0.06601,0.15593 -0.169889,0.25736 -0.33228,0.18862 -0.162427,-0.0687 -0.162639,-0.21406 -0.09663,-0.37 l 0.236678,-0.55862 -1.026294,-0.4346 -0.25063,0.59118 c -0.283287,0.66924 0.116324,1.13711 0.772562,1.4149 0.857656,0.36304 1.464814,0.16008 1.775602,-0.57413 0.51156,-1.20852 -0.973883,-1.69954 -0.704349,-2.33629 0.06601,-0.15594 0.169897,-0.25736 0.332279,-0.18862 0.162437,0.0688 0.162121,0.21459 0.09612,0.37052 l -0.170532,0.40256 1.026811,0.4346 0.181384,-0.42891 c 0.264031,-0.62375 -0.107074,-1.14068 -0.886768,-1.47072 -0.232283,-0.0983 -0.461305,-0.1546 -0.674894,-0.15606 z m 63.381662,0.65629 -0.33951,0.85215 3.39514,1.35237 -0.005,0.0134 -3.67161,-0.65784 -0.601,1.50741 4.66742,1.85931 0.33899,-0.85214 -3.90002,-1.55339 0.005,-0.0134 4.22145,0.74724 0.55604,-1.39578 z m -59.639771,0.85163 -1.573031,3.71657 0.987537,0.41806 1.091923,-2.57969 c 0.06876,-0.16243 0.149701,-0.33523 0.344682,-0.25269 0.194916,0.0825 0.133357,0.2639 0.06459,0.42633 l -1.091923,2.57917 0.988053,0.41806 1.091407,-2.57917 c 0.06876,-0.16244 0.14971,-0.33523 0.344682,-0.2527 0.194925,0.0825 0.133873,0.26337 0.06511,0.42581 l -1.091923,2.57918 0.987536,0.41806 1.259355,-2.97553 c 0.192524,-0.45482 0.170683,-0.85501 -0.342615,-1.07229 -0.363854,-0.15402 -0.737631,-0.0673 -0.936377,0.23926 l -0.01344,-0.006 c 0.07981,-0.38761 -0.07045,-0.66593 -0.4408,-0.82269 -0.376858,-0.15953 -0.693375,-0.0637 -0.943095,0.23668 l -0.01292,-0.005 0.209289,-0.49403 z m 4.624524,2.04949 c -0.394274,0.003 -0.756267,0.17895 -0.953947,0.64595 l -0.145728,0.34417 1.026811,0.4346 0.173116,-0.40928 c 0.06326,-0.14944 0.161283,-0.25393 0.330212,-0.18242 0.168929,0.0715 0.161966,0.21435 0.0987,0.3638 -0.291534,0.68872 -1.697401,-0.0444 -2.109948,0.93018 l -0.233578,0.55242 c -0.206276,0.48731 -0.04886,0.8758 0.399459,1.06557 0.409337,0.17327 0.688272,0.0384 0.924491,-0.1757 l 0.01292,0.006 -0.183968,0.4346 1.026294,0.4346 1.163237,-2.74816 c 0.316287,-0.7472 -0.194589,-1.27764 -0.811837,-1.53892 -0.231471,-0.098 -0.479671,-0.15916 -0.716235,-0.15761 z m 2.224153,0.84956 -1.925464,4.54804 1.026811,0.4346 0.558106,-1.3193 0.01292,0.006 c -0.05203,0.37638 0.125446,0.68126 0.502295,0.84078 0.519798,0.22002 0.863225,-0.0485 1.055749,-0.50333 l 0.869198,-2.05311 c 0.198024,-0.46782 0.232485,-1.02007 -0.332796,-1.25935 -0.376849,-0.15952 -0.716801,-0.13479 -0.933794,0.23306 l -0.01292,-0.006 0.206189,-0.48731 z m 4.666899,0.90278 -0.278019,0.6563 1.02681,0.43459 0.277503,-0.65629 z m -6.757727,0.38034 -0.272335,0.64338 c -0.140265,0.33136 -0.226877,0.46285 -0.441317,0.37207 -0.09746,-0.0412 -0.160961,-0.14442 -0.105936,-0.27441 l 0.170532,-0.40307 c 0.123765,-0.29238 0.387131,-0.28029 0.649056,-0.33797 z m 2.900598,0.0217 c 0.03057,-1.1e-4 0.06216,0.007 0.09302,0.0196 0.123454,0.0523 0.17572,0.18175 0.10697,0.34417 l -0.682129,1.61127 c -0.06876,0.16243 -0.198,0.21503 -0.321428,0.16278 -0.123454,-0.0523 -0.176237,-0.18175 -0.107487,-0.34416 l 0.682129,-1.61179 c 0.05157,-0.12182 0.137214,-0.18158 0.228927,-0.1819 z m 3.472139,0.50746 -1.573547,3.71657 1.026811,0.4346 1.57303,-3.71657 z m 1.865003,0.86558 c -0.407761,-0.003 -0.758525,0.19398 -0.964282,0.68006 -0.51156,1.20852 1.059276,1.55186 0.685229,2.43551 -0.06601,0.15593 -0.170405,0.25736 -0.332796,0.18862 -0.162436,-0.0688 -0.162122,-0.21407 -0.09612,-0.37 l 0.236678,-0.55862 -1.026811,-0.4346 -0.250114,0.59118 c -0.283287,0.66924 0.116325,1.13711 0.772563,1.4149 0.857665,0.36304 1.464298,0.16008 1.775085,-0.57413 0.51156,-1.20852 -0.973883,-1.69902 -0.704349,-2.33577 0.06601,-0.15593 0.170323,-0.25739 0.332796,-0.18862 0.162437,0.0688 0.162121,0.21407 0.09612,0.37 l -0.170532,0.40256 1.02681,0.4346 0.181385,-0.42892 c 0.26403,-0.62374 -0.107075,-1.14066 -0.886768,-1.47071 -0.232283,-0.0983 -0.461305,-0.1546 -0.674894,-0.15606 z m 4.273124,1.8247 c -0.394273,0.003 -0.756267,0.17895 -0.953947,0.64595 l -0.145727,0.34417 1.02681,0.43459 0.173116,-0.40927 c 0.06326,-0.14944 0.160767,-0.2534 0.329696,-0.1819 0.168929,0.0715 0.162473,0.21384 0.09922,0.36328 -0.291535,0.68873 -1.697401,-0.0439 -2.109949,0.93069 l -0.234094,0.55191 c -0.206276,0.48731 -0.04886,0.87579 0.399459,1.06557 0.409337,0.17327 0.688788,0.0384 0.925008,-0.1757 l 0.01292,0.005 -0.184485,0.43564 1.026811,0.4346 1.163236,-2.74816 c 0.316289,-0.7472 -0.194589,-1.27764 -0.811837,-1.53892 -0.231471,-0.098 -0.479671,-0.15916 -0.716235,-0.15761 z m 4.122748,0.58032 -1.958022,4.62659 1.026292,0.4346 1.95854,-4.62659 z m 1.3255,0.56121 -0.2775,0.65629 1.02629,0.4346 0.27802,-0.65629 z m -0.38499,0.9095 -1.57303,3.71657 1.02629,0.4346 1.57355,-3.71657 z m -4.930449,0.0816 -0.272335,0.64337 c -0.140266,0.33136 -0.22636,0.46284 -0.4408,0.37207 -0.09746,-0.0413 -0.160963,-0.1444 -0.105937,-0.2744 l 0.170532,-0.40307 c 0.123765,-0.29239 0.386615,-0.28029 0.64854,-0.33797 z m 6.821809,0.79272 c -0.45636,-0.009 -0.80105,0.22461 -0.99581,0.68471 l -0.75086,1.77405 c -0.29154,0.68872 0.16645,1.23479 0.82269,1.51257 0.72122,0.30529 1.35403,0.25885 1.65106,-0.44287 l 0.231,-0.5457 -1.02681,-0.4346 -0.20361,0.48111 c -0.0935,0.22091 -0.20288,0.33542 -0.36535,0.26665 -0.13645,-0.0578 -0.1566,-0.22712 -0.063,-0.44803 l 0.31885,-0.75396 1.45521,0.61598 0.41289,-0.97462 c 0.33828,-0.79918 -0.14216,-1.2937 -0.7984,-1.57148 -0.24975,-0.10572 -0.48038,-0.15976 -0.68781,-0.16381 z m 0.27905,0.81442 c 0.037,-0.002 0.0783,0.006 0.12299,0.0253 0.14294,0.0605 0.18141,0.16869 0.12092,0.31161 l -0.21497,0.50694 -0.4284,-0.18138 0.21446,-0.50695 c 0.0416,-0.0983 0.10362,-0.15151 0.185,-0.15554 z" /></g><g
           id="g1845"
           transform="translate(-0.78791158,3.3357902)"><g
             id="g1833"><rect
               style="opacity:1;fill:#ffaaaa;fill-opacity:1;stroke:#000000;stroke-width:0.3;stroke-linecap:round;stroke-dasharray:none;stroke-opacity:1;paint-order:normal;stop-color:#000000"
               id="rect1820"
               width="2.4129474"
               height="3.351788"
               x="133.44087"
               y="63.349239"
               transform="rotate(20.21254)" /><rect
               style="opacity:1;fill:#ffaaaa;fill-opacity:1;stroke:#000000;stroke-width:0.3;stroke-linecap:round;stroke-dasharray:none;stroke-opacity:1;paint-order:normal;stop-color:#000000"
               id="rect1826"
               width="2.4129474"
               height="3.351788"
               x="131.02792"
               y="63.349239"
               transform="rotate(20.21254)" /><rect
               style="opacity:1;fill:#ffaaaa;fill-opacity:1;stroke:#000000;stroke-width:0.3;stroke-linecap:round;stroke-dasharray:none;stroke-opacity:1;paint-order:normal;stop-color:#000000"
               id="rect1828"
               width="2.4129474"
               height="3.351788"
               x="128.61497"
               y="63.349239"
               transform="rotate(20.21254)" /></g><path
             style="fill:none;stroke:#000000;stroke-width:0.264583px;stroke-linecap:butt;stroke-linejoin:bevel;stroke-opacity:1"
             d="m 97.649087,107.03034 3.422413,-2.31169 1.10629,3.97906 3.42241,-2.3117"
             id="path1835" /><path
             style="fill:none;stroke:#000000;stroke-width:0.264583px;stroke-linecap:butt;stroke-linejoin:bevel;stroke-opacity:1"
             d="m 104.44215,109.53139 -1.1063,-3.97906 -3.422409,2.31169 -1.106299,-3.97906"
             id="path1837" /></g><path
           id="path1"
           style="display:inline;fill:#e6e6e6;stroke:#000000;stroke-width:0.264583px;stroke-linecap:butt;stroke-linejoin:miter;stroke-opacity:1"
           d="m 135.34281,139.13212 -10.28606,-3.86065 -6.14823,16.85214 -24.940734,-10.08834 6.508384,-16.42716 -16.132736,-6.36449 -10.55109,27.7997 44.551626,17.24818 -7.69381,21.13325 6.60573,2.37361 z"
           sodipodi:nodetypes="ccccccccccc" /><path
           style="fill:none;stroke:#000000;stroke-width:0.264583px;stroke-linecap:butt;stroke-linejoin:miter;stroke-opacity:1"
           d="m 126.65983,130.82013 10.53931,3.85908"
           id="path4"
           sodipodi:nodetypes="cc" /></g><path
         style="fill:none;stroke:#000000;stroke-width:0.264583px;stroke-linecap:butt;stroke-linejoin:miter;stroke-opacity:1"
         d="m 118.93697,83.968953 -2.03411,-0.884318"
         id="path6" /><path
         style="fill:none;stroke:#000000;stroke-width:0.264583px;stroke-linecap:butt;stroke-linejoin:miter;stroke-opacity:1"
         d="m 140.51119,92.420822 1.91851,0.773396"
         id="path7" /></g></g></svg>
